<mxfile host="app.diagrams.net" modified="2021-10-04T16:21:37.917Z" agent="5.0 (Macintosh; Intel Mac OS X 10_15_7) AppleWebKit/537.36 (KHTML, like Gecko) Chrome/94.0.4606.71 Safari/537.36" etag="GfxG4H8e1YqN632AHq34" version="15.2.5" type="github">
  <diagram id="4FGtUWKqfe4CJwsDXS-Q" name="Page-1">
    <mxGraphModel dx="940" dy="498" grid="1" gridSize="10" guides="1" tooltips="1" connect="1" arrows="1" fold="1" page="1" pageScale="1" pageWidth="1100" pageHeight="850" math="0" shadow="0">
      <root>
        <mxCell id="0" />
        <mxCell id="1" parent="0" />
        <mxCell id="gVB4LSOkvo2EhLdVo8bD-5" value="" style="edgeStyle=orthogonalEdgeStyle;rounded=0;orthogonalLoop=1;jettySize=auto;html=1;startArrow=classic;startFill=1;" edge="1" parent="1" source="gVB4LSOkvo2EhLdVo8bD-1" target="gVB4LSOkvo2EhLdVo8bD-4">
          <mxGeometry relative="1" as="geometry" />
        </mxCell>
        <mxCell id="gVB4LSOkvo2EhLdVo8bD-1" value="&lt;font style=&quot;font-size: 10px&quot;&gt;00001&lt;/font&gt;" style="shape=cylinder3;whiteSpace=wrap;html=1;boundedLbl=1;backgroundOutline=1;size=15;" vertex="1" parent="1">
          <mxGeometry x="166" y="190" width="37.5" height="50" as="geometry" />
        </mxCell>
        <mxCell id="gVB4LSOkvo2EhLdVo8bD-2" value="" style="shape=cylinder3;whiteSpace=wrap;html=1;boundedLbl=1;backgroundOutline=1;size=15;" vertex="1" parent="1">
          <mxGeometry x="236" y="280" width="37.5" height="50" as="geometry" />
        </mxCell>
        <mxCell id="gVB4LSOkvo2EhLdVo8bD-6" value="" style="edgeStyle=orthogonalEdgeStyle;rounded=0;orthogonalLoop=1;jettySize=auto;html=1;startArrow=classic;startFill=1;exitX=0.5;exitY=1;exitDx=0;exitDy=0;exitPerimeter=0;entryX=0.5;entryY=0;entryDx=0;entryDy=0;entryPerimeter=0;" edge="1" parent="1" source="gVB4LSOkvo2EhLdVo8bD-3" target="gVB4LSOkvo2EhLdVo8bD-2">
          <mxGeometry relative="1" as="geometry">
            <Array as="points">
              <mxPoint x="255" y="275" />
              <mxPoint x="255" y="275" />
            </Array>
          </mxGeometry>
        </mxCell>
        <mxCell id="gVB4LSOkvo2EhLdVo8bD-3" value="&lt;font style=&quot;font-size: 10px&quot;&gt;00002&lt;/font&gt;" style="shape=cylinder3;whiteSpace=wrap;html=1;boundedLbl=1;backgroundOutline=1;size=15;" vertex="1" parent="1">
          <mxGeometry x="236" y="190" width="37.5" height="50" as="geometry" />
        </mxCell>
        <mxCell id="gVB4LSOkvo2EhLdVo8bD-4" value="" style="shape=cylinder3;whiteSpace=wrap;html=1;boundedLbl=1;backgroundOutline=1;size=15;" vertex="1" parent="1">
          <mxGeometry x="110" y="250" width="37.5" height="50" as="geometry" />
        </mxCell>
        <mxCell id="gVB4LSOkvo2EhLdVo8bD-9" value="" style="edgeStyle=orthogonalEdgeStyle;rounded=0;orthogonalLoop=1;jettySize=auto;html=1;startArrow=classic;startFill=1;entryX=0;entryY=0.5;entryDx=0;entryDy=0;entryPerimeter=0;" edge="1" parent="1" source="gVB4LSOkvo2EhLdVo8bD-7" target="gVB4LSOkvo2EhLdVo8bD-1">
          <mxGeometry relative="1" as="geometry">
            <Array as="points">
              <mxPoint x="100" y="215" />
            </Array>
          </mxGeometry>
        </mxCell>
        <mxCell id="gVB4LSOkvo2EhLdVo8bD-7" value="" style="shape=cylinder3;whiteSpace=wrap;html=1;boundedLbl=1;backgroundOutline=1;size=15;" vertex="1" parent="1">
          <mxGeometry x="72.5" y="230" width="37.5" height="50" as="geometry" />
        </mxCell>
        <mxCell id="gVB4LSOkvo2EhLdVo8bD-12" value="&lt;font style=&quot;font-size: 10px&quot;&gt;00003&lt;/font&gt;" style="shape=cylinder3;whiteSpace=wrap;html=1;boundedLbl=1;backgroundOutline=1;size=15;" vertex="1" parent="1">
          <mxGeometry x="300" y="190" width="37.5" height="50" as="geometry" />
        </mxCell>
        <mxCell id="gVB4LSOkvo2EhLdVo8bD-25" value="Polaris&lt;br&gt;â˜…" style="whiteSpace=wrap;html=1;aspect=fixed;" vertex="1" parent="1">
          <mxGeometry x="460" y="50.06" width="60" height="60" as="geometry" />
        </mxCell>
        <mxCell id="gVB4LSOkvo2EhLdVo8bD-56" value="" style="edgeStyle=orthogonalEdgeStyle;rounded=0;orthogonalLoop=1;jettySize=auto;html=1;startArrow=classic;startFill=1;endArrow=none;endFill=0;" edge="1" parent="1" source="gVB4LSOkvo2EhLdVo8bD-26" target="gVB4LSOkvo2EhLdVo8bD-25">
          <mxGeometry relative="1" as="geometry" />
        </mxCell>
        <mxCell id="gVB4LSOkvo2EhLdVo8bD-26" value="" style="shape=cylinder3;whiteSpace=wrap;html=1;boundedLbl=1;backgroundOutline=1;size=15;" vertex="1" parent="1">
          <mxGeometry x="560" y="55.84" width="32.29" height="48.44" as="geometry" />
        </mxCell>
        <mxCell id="gVB4LSOkvo2EhLdVo8bD-55" value="" style="edgeStyle=orthogonalEdgeStyle;rounded=0;orthogonalLoop=1;jettySize=auto;html=1;startArrow=classic;startFill=1;endArrow=classic;endFill=1;" edge="1" parent="1" source="gVB4LSOkvo2EhLdVo8bD-28" target="gVB4LSOkvo2EhLdVo8bD-25">
          <mxGeometry relative="1" as="geometry" />
        </mxCell>
        <mxCell id="gVB4LSOkvo2EhLdVo8bD-28" value="" style="shape=image;imageAspect=0;aspect=fixed;verticalLabelPosition=bottom;verticalAlign=top;image=data:image/png,iVBORw0KGgoAAAANSUhEUgAAC7gAAAfQCAMAAABlzOIIAAAABGdBTUEAALGPC/xhBQAAAAFzUkdCAK7OHOkAAALZUExURUdwTKQdEEMyMmNjZmJjZWJjZmJkZmNjZWJkZmNjZqMdEGNjZWNkZqxbW2RkZGJjZmJjZWJjZmJkZmNjZ11oaKhNPGJkZmJkZWJjZmJkZmJjZWJiYmJjZmNjZmJiZmNlZmNjZWJjZWNjZWJjZWNjZmJjZWNkZmJjZmJjZmJkZmJkZmJkZmJjZWJkZaQdEGJjZmJjZqMdEGNjZmNkZWJjZWJjZmNjZWJiZWJkZmNjZmNkZmNjZmRkZGNjZWNjZWNkZcAnGmJkZmNjZmJjZmNkZWNjZsMkHa8kF9grH2JjZmNkZWJkZmJjZdgrH8YmG6QdELchE9gsINcrH9gsIGFmZtksINgrH2NjZdgrH9grH6MeENcrH2NkZqMcEdgrH6MdEKMdEKMdENgrH6QdEWNjZaUeEdcsINgrH6QdEKQdEaMdEaUdEdcrH6UdD9grH9crIKMdEaQbEKMdEaMdEKQeENgrH6QdEKUdEKQdEKMdENgrH9grIKMdEaIdEKQeEtgrIdgrH9krH9grH6UeD9crH9gsH6QeEdgsH6UeD6QdENgrH9grH9csH9crH8knG9grH6UdENgrH9crH6gfEqMeEaQdEMcmG8ElGLYiFa0dEWNkZtgsIKQeEf///60hFXoMANcrH88pHdYrH7IhFdMqHqgeErwkGMQmGsElGcooHKwgE8cnG7UjFqUeEaYeEaUdEb4lGLAhFNUrH7MhFc0pHNQrHq4gFLgjF7gkF6ofEskoG6kfEtApHsImGbokF8UmGtgtIq0gE//+/tEqHvXHxP77+9o3K+uOiOVyauiAed5JP9s7MO2dl/TAvd9QRv739+BWTPfPzNxBNud6cvri4OJkW/nc2vK5tdkxJPjW0++kn/3z8tEqHe+rpumIgeyWkORrYvGyruJeVfzu7tozKPvq6ZYWCn8NAfvm5N1FOrUiFYwSBYUPA58ZDbkhFawdEeFZT/CuqeyalDCobq4AAACadFJOUwDVAfbv3Hd7jqR7mP4BBcX9+hoPCATM1rLSiAu3vBImTUDfwaDjO0Ri6SuDUed4kdr6rTNy7B4vN5xYqhYjf2YOb1Ve8scKBvyVSGmnHhb0Ene8VSBEqlvOMbuIixuZiHCZ191rRGbf6e6iVilN5vazJICqy5LFZuKQ8EzQXik78160M2/5OO0gLoDDpOlXxz2fe5Y6YfCs4/HiCO7pAAAgAElEQVR42uzBAQEAAACAkP6v7ggKAAAAAAAAAAAAAAAAAAAAAAAAAAAAAAAAAAAAAAAAAAAAAAAAAAAAAAAAAAAAAAAAAAAAAAAAAAAAAAAAAAAAAAAAAAAAAAAAAAAAAAAAAAAAAAAAAAAAAAAAAAAAAAAAAAAAAAAAAAAAAAAAAAAAAAAAAAAAAAAAAAAAAAAAAAAAAAAAAAAAAAAAAAAAAAAAAAAAAAAAAAAAAAAAAAAAAAAAAAAAAAAAAAAAAAAAAAAAAAAAAAAAAAAAAAAAAAAAAAAAAAAAAAAAAAAAAAAAAAAAAAAAAAAAAAAAAAAAAAAAAAAAAAAAAAAAAAAAAAAAAAAAAAAAAAAAAAAAAAAAAAAAAAAAAAAAAAAAAAAAAAAAAAAAAAAAAAAAAAAAAAAAAAAAAAAAAAAAAAAAAAAAAAAAAAAAAAAAAAAAAAAAAAAAAAAAAAAAAAAAAAAAAAAAAAAAAAAAAAAAAAAAAAAAAAAAAAAAAAAAAAAAAAAAAAAAAAAAAAAAAAAAAAAAAAAAAAAAAAAAAAAAAAAAAAAAAAAAAAAAAAAAAAAAAAAAAAAAAAAAAAAAAAAAAAAAAAAAAAAAAAAAAAAAAAAAAAAAAAAAAAAAAAAAAAAAAAAAAAAAAAAAAAAAAAAAAAAAAAAAAAAAAAAAAAAAAAAAAAAAAAAAAAAAAAAAAAAAAAAAgNmDAwEAAAAAIP/XRlBVVVVVVVVVVVVVVVVVVVVVVVVVVVVVVVVVVVVVVVVVVVVVVVVVVVVVVVVVVVVVVVVVVVVVVVVVVVVVVVVVVVVVVVVVVVVVVVVVVVVVVVVVVVVVVVVVVVVVVVVVVVVVVVVVVVVVVVVVVVVVVVVVVVVVVVVVVVVVVVVVVVVVVVVVVVVVVVVVVVVVVVVVVVVVVVVVVVVVVVVVVVVVVVVVVVVVVVVVVVVVVVVVVVVVVVVVVVVVVVVVVVVVVVVVVVVVVVVVVVVVVVVVVVVVVVVVVVVVVVVVVVVVVVVVVVVVVVVVVVVVVVVVVVVVVVVVVVVVVVVVVVVVVVVVVVVVVVVVVVVVVVVVVVVVVVVVVVVVVVVVVVVVVVVVVVVVVVVVVVVVVVVVVVVVVVVVVVVVVVVVVVVVVVVVVVVVVVVVVVVVVVVVVVVVVVVVVVVVVVVVVVVVVVVVVVVVVVVVVVVVVVVVVVVVVVVVVVVVVVVVVVVVVVVVVVVVVVVVVVVVVVVVVVVVVVVVVVVVVVVVVVVVVVVVVVVVVVVVVVVVVVVVVVVVVVVVVVVVVVVVVVVVVVVVVVVVVVVVVVVVVVVVVVVVVVVVVVVVVVVVVVVVVVVVVVVVVVVVVVVVVVVVVVVVVVVVVVVVVVVVVVVVVVVVVVVVVVVVVVVVVVVVVVVVVVVVVVVVVVVVYQ8OBAAAAACA/F8bQVVVVVVVVVVVVVVVVVVVVVVVVVVVVVVVVVVVVVVVVVVVVVVVVVVVVVVVVVVVVVVVVVVVVVVVVVVVVVVVVVVVVVVVVVVVVVVVVVVVVVVVVVVVVVVVVVVVVVVVVVVVVVVVVVVVVVVVVVVVVVVVVVVVVVVVVVVVVVVVVVVVVVVVVVVVVVVVVVVVVVVVVVVVVVVVVVVVVVVVVVVVVVVVVVVVVVVVVVVVVVVVVVVVVVVVVVVVVVVVVVVVVVVVVVVVVVVVVVVVVVVVVVVVVVVVVVVVVVVVVVVVVVVVVVVVVVVVVVVVVVVVVVVVVVVVVVVVVVVVVVVVVVVVVVVVVVVVVVVVVVVVVVVVVVVVVVVVVVVVVVVVVVVVVVVVVVVVVVVVVVVVVVVVVVVVVVVVVVVVVVVVVVVVVVVVVVVVVVVVVVVVVVVVVVVVVVVVVVVVVVVVVVVVVVVVVVVVVVVVVVVVVVVVVVVVVVVVVVVVVVVVVVVVVVVVVVVVVVVVVVVVVVVVVVVVVVVVVVVVVVVVVVVVVVVVVVVVVVVVVVVVVVVVVVVVVVVVVVVVVVVVVVVVVVVVVVVVVVVVVVVVVVVVVVVVVVVVVVVVVVVVVVVVVVVVVVVVVVVVVVVVVVVVVVVVVVVVVVVVVVVVVVVVVVVVVVVVVVVVVVVVVVVVVVVVVVVVVVVVVVWFvfvXTRuK4gD8BB55HybwYhRsgYyQGBhgQcnkBQYHBKoEQVW63pfJo7Wqqqrqv5SUALa/b7LXczwcXZ37MwAAAAAAAAAAAAAAAAAAAAAAAAAAAAAAAAAAAAAAAAAAAAAAAAAAAAAAAAAAAAAAAAAAAAAAAAAAAAAAAAAAAAAAAAAAAAAAAAAAAAAAAAAAAAAAAAAAAAAAAAAAAAAAAAAAAAAAAAAAAAAAAAAAAAAAAAAAAAAAAAAAAAAAAAAAAAAAAAAAAAAAAAAAAAAAAAAAAAAAAAAAAAAAAAAAAAAAAAAAAAAAAAAAAAAAAAAAAAAAAAAAAAAAAAAAAAAAAAAAAAAAAAAAAAAAAAAAAAAAAAAAAAAAAAAAAAAAAAAAAAAAAAAAAAAAAAAAAAAAAAAAAAAAAAAAAAAAAAAAAAAAAAAAAAAAAAAAAAAAAAAAAAAAAAAAAAAAAAAAAAAAAAAAAAAAAAAAAAAAAAAAAHBeraRc9/fF0+aQf/Vx81Tst+tB0lIbAAC4vqi36j8f5nH45vvDt5fddFNsy7ZCAQDAtWb2xbpIP4RXvXyZ4KfD/sD0DgAAF9YdbYfHcJp4OsnulA4AAC40tA/GH3fhbeK8WHWVEAAA3leUzIbL+CX8j4d0m6gkAAC8l072fB/OYzouIwUFAICz662Hj+Gcjk8rWZEAAHBOo30eh/O7LwZmdwAAONPUPp6Hd3Ms7MwAAMB/W+ynP/1V6ezmxUidAQDgzaJ3PWv/US5nBgAA3ibpT8PlxOm6o+YAAHDi1L49xOHClpNS4QEA4J+115tduIppv6f8AADwD7qr4ZWm9q92Q+nuAADwmsX4GK7tw0TKDAAA/FHU2+bhNuRbKzMAAPA73dUwDrfDygwAAPxqVBzDrbkfLzQGAAC+u2xi+wnZ7i/5rK09AADwRWedxuFWxeHxWbg7AACNF5WTx3DrhLsDANBsSX8eKiFOMzdVAQBopvYtr8j87qZqEmkaAAAN01o9PYSqSbOOzgEA0CCVWZH52dI/VQEAaIpOVqkVmV9vqt7pIQAAtTeqQIrMKx6GA9vuAADUWW+bh1qY7hPdBACgnlqD4S7URpxmXT0FAKB2FuNjqJn78UJfAQCok/bsEOoozmcCIgEAqImorP591L8FRJZaDABA9VU2sv2UgMiePgMAUGXdbBOHBtgJiAQAoLrKYhkaY/qpZ3YHAKB67mZ5aJY4zVr6DgBAlUS1imw/JSAycewOAEBVLPbz0FgHAZEAAFRBJ0vj0GjLychnAADATYvK58dAOKwduwMAfGbvXnuiuvY4jidiaxscI16K1Gu9VeGctLEHa/W0h/aoTGshMDhTCIYHpMEnhHnEE33gJSUm59g3sHdWwkuZTMDhPsAg1wDDLdFn9byCgz3aY3GAmb3X2nut7fcTH9b5Z++1tvl1Za31h7Zqf2kls9OXCQAAAFo7+I6eR92qL1Md0wIAAAB6eafPo24qTl8mAAAAaET+edTp8eAsu9cyQQAAAKCDps5H8vPuVE/fNH2ZAAAAADlCVWr6oyYGesXa7EiA+jIxVwAAAOBfbI8+jqvKuvNi3Uz/anCW3auZMAAAAPBDTb3K86jj6ZfJXczNjwZm2b2znUkDAAAAj1XfjSnuj/of8cpM/xNPgvW4+gOxjW30ZQIAAICH2pt/VR5yn6y9Cu5JkZ56mlBc7fnCWHrQk75MTUwfAAAAeKLqQcSTFfAF8YbJ1KDS1J4U4oVHW2Ya26qYRAAAAFCtqeW+RwF3euLN5C56h/uULLsP/J7a13m3mT4eizKRAAAAoFDtL422d/rEBmtDzyWXGEm9Su1CjCU8fDT6MgEAAECZUFT1edSNl7nPbEzuIimzL9PI4uQbP53x+JKZrlg0xKQCAACAbGovf8xtWeQgqS/Tn1O7ECs+3Bh/m75MAAAAkOp6QyRs+6BH5OT6gsiRxYmNvznkV1+mg0wvAAAAyNHe/MinnkUjydzJ3U1fpsTy0MTbP5gc8K0vU3MNW2YAAADgWlVbo+2fJbEpRxdEJpZn13L+2rCPDxmOPKAvEwAAANwI3WuJ2356nt48uRfcl2nT1L4u2+3rc9KXCQAAAM75cR51o1mxpfyX3ddT+8rmvzOR8PtBw41tLLsDAACgcNV3Y12273HWHlzZOrnn15dpNbs0t+WvpLpt/91puce8AwAAQEHam3+19ZAS29qmL9O2qV2I9KAmT9taX8fkA2CqfSf+Vnzqo/fO7zxZdu1KxeXyHR7WPrZe+2jZeu0zn3905IMbnx5mOAC8G/y6/DF37H62fXLfoi9THql93QttHteO05cJgIkOfFdcam1w/sdzx7yoHfrks7K9G2qXXPv47A6GBUDQNbXctzXS3S/ykZybf7sv02DfUjqvvz2q0xPbrfW1TEMARjn71U4rp5ILJ/Yorn381pncta2TFccZGgABVufr5Y+5T5VOijz9uS/TYGY4nedfHEto9sxdD+nLBMAYoRPXrC2c/PaAwuJfnt69Re29h75gfAAE9N/eaKzL1k9W5O2Pvkzrqb03/7+W0fCpO5prmJEATHCi1NrGycuqah8/tF3t3Ye+ZogABI8Olz/m1iMKMJkaLCy1C7GyquVjhyMN1UxLAJq7uW10fumIkvR8uKIkj9pF3xxgmAAESrVO51E37pX5LVlIDBfpwv5zIYZ0fXK7o7OduQlAZ/8osvJSdEN+7fLS/GpbZeUMFIDg0Ofyx9ymhErJAZ2fnb5MAPS1/0Mrbxf2Sy7+z6K8axedY6wABENV279tzQ30qgzuw5o//Z2WJmYpAB3dLLUKUHpRZu3Q94XUtm5xNSSAANDs8sdNzKsM7tlu7Z+/sa2KqQpAN+VnCsrO1l8l7ljZ82Nhta3TexgwAEYL1da32kYYnFOX2ycSJryBeCzKhAWglUs7C8zOVuWX0nL7kUJrW1dI7gAMdjAaC9umWFQX3FPdhrwD+jIB0El5ZcHZ2TovqSHSjtOF17aKGTMAptL9POoGT9ZU5fb0oDlvIf44GmLqAtDCxTMOsrP1+d+lFP/MSW1rF6MGwETXNb78cRMLqoL7C7Pew236MgHQwYEyR9nZOiWjLfQ5Z7X3fsq4ATCOGedRN17mPqEouI+a9ibCkYaDTGIAPiu2HKpwX/v4VYe1z+9j4AAYpa6t0TZSn5rcPpYw8F10NNewZQaAny47ze0Slr2dLva/bODKyAEwRyj6OG4bKjGmJLhnzHwb4cgD+jIB8M2xSsfZ2Tpz2GXxXc5rW39h7AAYoqb+tm2wZRW5fWXV2PfxiL5MAPzylYvs7HazzMWrlo//1wAAXqhueBg2ObZPZ6eSCoL7kMnvJNzYxrI7AB+c3e0muJd87ar4FTe1uVkGgAEMu/zxLSNDaq6DTA7YZrvTco/ZDcBrR11lZ+u0m9rle13VrmTJHYDeqkw9j/rK85SqG2XEsG2+xrYq5jgAL11yl9utkpsuin/osvjPjB8AjRl5+eP/DWZ6kuq6pma7A5Dc7a4YfZkAeOiQy+xsfe+89s0Sl7VP8u8lAF3Vmb3YPp2d6hUKTSTsgGitr2W2A/DGvt1ug/tV5/tVdrmtbX3CCALQUSga6zI4iyaWZ1eEWik7OLoe0pcJgCfcZ2frJ8fFS13XLmYEAejH8MsfR4aeCdWSS6N2kHQ01zDvASjnPjs7b4T0hfvalXsYQgB6qb4bM/nyx/GFMeGNydR4kKJ7ONJQzewHoNRx99nZKtnvsPg3EopfYgwB6MTsyx9X+4Z7hXeSPZnVQC27d7bzBQBQ6IaE7Gz94LD4KQm132cMAWjjekPE4MX2xPJ8Oik8Nje/HKgtM/RlAqDQBRnB/Zaz2geKLB/36QCAZE2dj+iz5GTLzOLzIEX3Oy1NfAsA1DgvI7hfc1b7rIzalYwhAB2Y3WlpfGFG+ChoW2boywRAiWMysrN1dYej4uekFD/GKALwXVNLnD5LbrfMJAIU3eOxKF8FANmkLHpb1j5HxT+WUpvTqQB8Vmvy5Y/T2aW00EPAtszQlwmAbHIWvR22QboipfZPjCIAH4WiJl/+OKq8z9K7vGWmKxalvTcAid6XE9y/c1T8qJTaPzOKAHxjdKelkcUJoZ25padB2jLT+i/6MgGQpkJOcD/nqPg1KbW5DxKAT6pNvvxxsH8sKfQUrC0z4UjDQb4VAFJ8ICe4f+uoeJmU2hWMIgA/mNxpaTU71Ss0luzJPAlSX6bmGrbMAJCgWE5w3+Wo+HtSan/AKALwXNWDiMl9luaE9oK1ZSYceUBfJgAEd4I7AO81tdw3eGP7M2GIYG2ZeURfJgAEd4I7AG/VGdxpyec+S4VvmRnrD9CWmXBjG8vuAAjuAOCRUDTWZWpufJIZ7hXGCdaWmTssuwMguAOAFwy+/DHxVJs+SwUvu08sDgSqL1MdXxIAgjsAqFR91+ROS79lUkNLPZNrSTOze6AaM8XpywSA4A4A6ph8+ePrRff/3d8+sty3sDg/PDZh0r6ZZDJYW2Za62v5pgAQ3AFAvusmd1ra4jb3geVs/+LslCkZ/tlQgLbMdD2kLxMAgjsASNbU+cgOuj8y/KTWV7z3BuqWmY7mGr4uAAR3AJClyuDLHx1ePjPwei+NlqdZ514EaNk9HGmo5hsDQHAHAAmaWuL2u6j79z/26vhoNpOa1eJQa3pibGo2lXk6MB2sV93R3M53BoDgDgDu1Na32ni9l2Z85GlmYWhpeMbbDD83Mzy/2J8dHQ/uq6UvEwCCOwC4EYrGwsT1nP7L3r38RnXdARwfJVlEbUxLEghN86IJJGlTteorVUuFE/EwNLFsqF0QEQurMhuEpUps4gVg2UIKVFHbRRfm3hnZDtQyEjbYqdUaMRqP7fH7hd/y2+NHMRjyF3RmUggYG8/j3nN+d/z9LCKFBXe4Vx59+XHOuYNfz+EH/P3TduX6dH/7vUiuez2e9XBLeS8TAMIdAOLk4DctKTtaMlTU3m5rV8MEhyKrYToa1+EdPZSbys8dAMnh/pIl136ZpwjAUnuT8/BHO3RZsWxmpN//9WoY7/q+mXnZWfzwAZAb7ps1XhsAVrYeDn+0zmhCm03bxgJTLYMebuODsXthBj+BAISG+6uWXPsDniIAq6SeOUA9xqJ1OubVMO2j63U1TDSKsvN5LxMAkeH+M0uu/Q5PEYA1Dh89TTnGqDnaZPeP9050tHq5Y1EcEMl7mQAIDPdPLLn2Vp4iAAtkrLs3LVmzSzXK/amdrayIifZ4SN7LBEBiuO+05NrP8xQBJCol63wexWjn/tRJ7lRMznJAJABh4b7VikvveoqnCCAxHP6YiOGowv2u/D9Imax/E+C9TABkhftr37Xg0rt5iAASsSkru4j6TkBjMIpuH5L+p/BUXyxdXKqT9aE4IBKAoHC35DxIjnEHkIDjR/5Ceie4yr03inBvFj5sv1RqmqVut3v2TomsT5aTmc5PKQAZ4f6sBZfez0MEEKc9vGlJ0f7UEcmnP3qqL5ph4XB3uxevVMv6eEUFBzkgEoCEcN+f+JU3vsBDBBCX40d405I1OhrWCvdhuR++PjxsfyjcI2N3YSfgcEAkAAnhvuGXCV95C88QQBxSCzn8Ud3+VF+L1GF7ea35wINwFzh2Ly7ggEgAusPdtS/hK/+GZwggZrxpSe3+VL/QYfv1UtNcMdwlrnb/lAMiAWgO9+0JHwb5fZ4hgNikF+aQ2hZbY3/qhPRh+wrh7nYv3v63sM98KDeVn1+AcNcX7q7dCV74JzxCALFICR/+yI5Uqw36n9Tt816Bw/Yq01wj3ENuXauR9bnzsrNS+CkGCHdd4f5eYtd97nc8QgDR401LWvanNgkL95LHhu2rhbvbPXe7Qtit5oBIgHDXFu4pLyV03Y94ggCitfdgAaN2HftTG3pEfdK6yirTjDrcJY7di7LzOSASINy1hPsbCZ0F+TpPEEB0eNOStv2pk4I+5tWKy+ZqVgv38Nj9hrDbfeIkO1UBwl19uLtcryRw2U94gACiIfZNS4OtLV19gd6x8eF7AwMDfr+/e2ho6ObN0H+6Q/8T+qXRtqax3omprpZWr/ByX31/6pT8Yfsa4R4Zu5fJut9phwoz+MkGCHfV4f76xriv+i4vXwIQBXFvWhrs6ZpoHh9tHwr67h907vM9fOy5L/L/j/ySYYz0+yfbxgJTLYMiw9272v7UIQcM29cOd7d7brZS2C3PY8kMQLirDnfXL+K+6hs8PwBrSc09J6jYW/rGRv03fUZigv7RpkDXjEP2pzYLGbaba1kj3MNj96V6aUtmeKcqQLirDfentsR50X08PgBrEPOmpcapsXvdQcNKvpv+4WZJ+b7y/tSRRgHHyKw1bI8y3CNjd4+wdj+Uu4cfdIBwVxburh3b4rrm917k8QF4kozcQxLCqmeiabI/vPLFZ9ig4Wb7+ISIY1s8K+9PHdb+uaqfuLI9tnAPv5dpqU5Yun96nsPdAcJdWbi7fvhMHJf88R94egBWl5J1Pk97Uc1MjbePGAoEB8a69O9eXXF/aofez1Rz6ZoZpSjDXeTYPeczlswAhLuicHdtjX2D6tO/5uEBWJWANy019o37Ow11fJ3dbX2aF86ssD/Vr3fYftGMXtThHh67f1EtLN3TDpxhyQxAuCsJd9d7sZb7rrd5dgBWsfdgQZHmTah9bf0+Q4OG7iadk/cV9qcGdA7bS03TpnAPmb0jbex+lsPdAcJdSbi7tu6K6XrPbOfRAVjZ8c+O6T2zvTUwOWJoND0Z0LUf1Nv22BqeQUcM2+MJd7d78Yq0sXtxTmY6XwEA4W57uLu2vxvD5ba9z5MDsJK9ut+01PHVkM/QrsE/pme/6mP7U8f1TKXLYhy2xxfukbF7ibB0L+Jwd4Bwtz/cXTtejfpqbz7PgwOwgsMn9b5paWFsyJDC1z3WqmHkHlj2Nwgdf3/wlNea8Ygn3MNj93JpY/dj7FQFCHe7w9216eXnorrWxh9t4LkBeEzqmQN6V8j0+n2GKJ3tvcrXzCx7f+qA+udQf73UNBWGu8ixe1pBFt8IAOFua7i7XO/vjuJSm3/OUwPwGM1vWvL2tTcYAo2Mqj6N8dH9qVMOGbYnFu5u99ztCmljd97LBBDuNoe7a8Pv13oX07Z3eMsEgOXSC3P0nvzY3O/zGUJ1B9TuD314f2q/V/Gwvco0tYR7yK1rV4Wl+4nMDL4bAMLdxnB3uV7805PS/Qc7WSUDYJmUU0f1vmmppW3aEC04rnK1+8z8N1duVnjdkkSG7RaEe3jsfkNYup8+QroDhLud4e5ybXj7radXXtu+5UOyHcAy6brftNQx4DPE6xxWmO7f7E8dUbfEvi6xYbsl4R4Zu9dIS/dUviQAwt3GcA957Y9vLZ+7//TbH77A0wLwqE35BXoPfyxeGHVAtkdeq9qmLN297fevOqxq2F7xL9MCFoS7wLH72UzWugOEu63hHvar/R/s++0r39n85paPnt25dQdPCsByH+sethcvDHcajtHZpmr+3XL/rqjZGFtXWWWaYsI9PHb/sl7W6ZD5fFkAhLvN4Q4AT6L9TUvFxY1tDsr2yCtVmxXtFf3//lS/gktdrbhsWsWqcHe752YrJZ0NWVzAue4A4U64A9Dl+JGz2nNoYt5wnKG7KvenBryOGbZbHO7hsfuSpLH76UJOZAMId8IdgAYpWdlp2kuop91wIt+okvUykf2pwUHnDNutD/fI2N0jJ90PpPPNARDuhDsAxdL/dkxABgWmDYfqVzJ0D/+1ZtxBw3Y7wj1kcalOzqnuhxm6A4Q74Q5ApcPniwQ00Myw4VwNTfavdPe2dBoNPTYO2y9dM61nfbiLGrvnHeT7AyDcCXcAypwqSJNQQAtDhqMNzNh/j74yBuz6rT3VF01b2BHu4bH7lWohm1TP8BUCEO6EOwAlUvI/l9E/d4OGww312P+PEvN99vzGNbYM2+0M95DZOyLG7mlZfI0AhDvhDkBBth/MEbLiYKLTcLz5Fvv/euN10rDd5nCXMnY/y7GQAOFOuAOw3alzxXS7hYIdxc5TdqnUNB0a7pGxe4n2W3iODaoA4U64A7DXcRlr28P6GoykEFxwWLXbO2xXEe7hsXu57tvIBlWAcCfcAdgp42SRmG7vGDGSRH+rk7K93uZhu5pwD4/d/1uj9UZ+zvcJQLgT7gDsk39CTj+2zhtJo93rmGF7ea2pgopwd7vnblfovJmscgcId8IdgF1S/yopIQeMJDLmkGH79VLTTKJwD7l17SprZQAQ7gCSTdYxSQ0ZSKZuNzpbGLbrCffw2P2GpjuayZcKQLgT7gDskJKZJqkiZ+aTKtwNv/xhe5VpJmW4R8buOla7lxzlawUg3Al3ADbYky2rI5uMJDMludpLVA7bNYS7prH7P/heAQh3wh2ADd1+QFZJDgaTLdzb5WZ7XWWVaSZ5uIfH7kv1im/s3/liAQh3wh2A5faeE9aSgWTrdsPXI7Par1ZcNjXQEO5u92yZ2tVHf+abBSDcCXcAVkvJlpaTA0kX7jIPltExbNcU7otXqhXf3Mpv8dUCEO6EOwCr5UrrSe+Iz2CtTJIO27WE++wdj+rbW/MF4Q4Q7oQ7AKt9nCctKVuSb+BuTIsbtpsalSb3sD2s9gLhDhDuhDsAq50XNwueSMJwN1olHSOjcdiuOtxnL5bouMXlFwh3gHAn3AFYLb1IXLj3JmO4C3oHU1mtaa6PcF9cqtN0i/9DuAOEO+EOwHKF8vZMNidjuHfIet9SafKH+9zsPz26/kmj6gLhDhDuhDsAy8lbKZOEp0GGLMi6x57y2uQO9/+xd25NTWVpGJ7hELAgNOEQkkggISQGEgoqgAgiKTcSU0QAACAASURBVAJcEL2kyhsuqZqfM3dTU9mrpgIREBQFgdYWKGhAPAKiiGcERkEblCl/wajddnVrE7J39uHbO+9TXrvgW4taz373t9fa3X+hXHFHGcQdAIg7xB0AID7/pCfujzTo7bML5Mp8rj+iVXHf2R5W8hOCL94OcQcA4g5xBwCIzT/oiftdDYr7KsVz3MNjfVoUd/kvSf3zOZsRBnEHAOIOcQcASMG/CArlqvbEfZPmzanceP+otsR95/20wt8P/Mgg7gBA3CHuAICEEfdn2hP3WxxVlIjdJRP33dFxhcs50Msg7gBA3CHuAABp+DdBl9zSnLcvL3CEkT12j2gzbP9E/xCDuAMAcYe4AwAk4u/jBE1yRWvi/owjTvfwiMrFfXf0ivI3W11kDOIOAMQd4g4AkEzchwlqpNYOhLzxjiPPFRmvU42IH7ZfIFDCsUEGcQcA4g5xBwBIKO695wha5Ly2xP0jpwom5YrdRRb37Q89BKrX0zfEIO4AQNwh7gAAKcWdXSSokEs3tOTtbxc4lSBT7C6muO9dHiBRurGfGYO4AwBxh7gDAKQVd9ZP0CDXtdQos8WpCDli94jGwnaOCw8zBnEHAOIOcQcASC7uQwP09HFmUTvifpNTFz0XrqpD3PcujxEp2cAgg7gDAHGHuAMAZBB31ttNzx4Xnmrm7qUZTnVMTo2QF/ftD2Ei1Zr7hTGIOwAQd4g7AEAWcWcTBM39gUbuT118zamRnoFrlMV9r5dK2M6Fpy4xiDsAEHeIOwBALnFnE2P01PHdKrxd2SBZstg9TnHf2R4Ok6nS9UHGIO4AQNwh7gAA+cSdXbpAMHNfm1W9tz9Wr7d/DpMlit3jEve9/Uk6FeoeZQziDgDEHeIOAJBV3NkQoRDzK69V/4XqsxlO5cxNRSiJO6mwnZu7OsQg7gBA3CHuAAC5xZ2xCL2bmGbuqTpzX34Y5tRPeKCPirjv7s9ROvS+7xJjEHcAIO4QdwCAAuLOJq7Ts8aN/6rX29eWOI1wrj+ivLjvvB8m9TzTP8EYxB0AiDvEHQCgjLiTbJd5oNZ2mdmXC5x2CI/1KSvuu6PnaGn7T4xB3AGAuEPcAQCKiTtj/6F3uszM7edq9PbVLU5jjPePKiXuO++naT3GTA8yBnEHvCkqdtkCbr9fp2uyWCw6XY3f7/ba644fRWn4klt8whZo+VzKNIvFo9PpTrsDx6qLG/Mh7vRJaix3BQP+mi9/BukWS5quy+8OBOtyslAbAPiKO2PXrtAL3TdV1+l+495rTnuIFrtHeIbt4+rT9oQR9xxbTUZhmzk11dxW2F5jy5Ft4PycOps7rbLUZ/08+q8YHb5Ov52cBWcVB09bTjrMZYYD5c5QYbbWN7XYT+VhT4payg6723PEYa44sJTZFUZTvcdtF2ElUhX3o3a3xWc1VqUWGK1nPC0nVLNmknJcZ9PqC80VmQcWq7bAcaZTlNkDIHHEnU1M0zPGrRV1dck8vsNpFHFi9wifsJ3YQaUxNMkkjLjneTMKvt14S0rdRRIP2xHsqiysiiLBbRa7nkjCbm+udziz+Wie01rpdxVhZ/pusVX7261RZv07ks0+T6A4ngiXorjr7Za2b4uQ7PC4kmjPnr7Ym3bEmBx70VqNJz3e41j2AMQk7oz9MkfOF2cePVWPt8/f57TM5PCIbOJOLWznes5PMAZx/4KrPuUAcTadlSgDzK9zVzpSYtJfS7HC5enwekwlgmWvwpoegLZ8ffwJ6o4UGIQVMtlYf7pOYPsMPXEv73QeMEiJ4gv+QIob0h2twkpXZmqyIXwHIAZxZ0N99PplZjbW1KHtK1uc1rly4aIc4r53eYCjpu29jEHcvyRo3rao3pkmemacG/RY+Wz/2SaXYsUp7zrjFMH4Kkxp9twE36ByGtrN2fEWstVhsQkoJDVxtxdmRhkmU7kFfyBZdc2+snjrl5rR0AhTA+AQcWes93wPPXV/SF/dZ+cfcQlBfLF7LOK+/YHaEhwf5qHtGhd3u/lQV2oSsdU8z24xCrC3QgVCyKRqnSklJB6GHzyuRP1iL8ddmipaITONliDPJUlL3Osch45kLac0fR1+n1h/CZnmSluiP8ICcJi4M/YTwVZ3buvxDdIXLm0ucQlDPLF75PCwndzxRnPRr1tKKHHPORlTt8pZcfpujzcXtgq13k55P1TN9dZXhMSn1dRcnmgbk/6Ex5gpdiEN1ho+z3KUxL2oPZZqGCqJ6G2WPb1A5MlLLvQjeAcgqrgzNjJAUBcfvCJ7I9PqzbtcYiE4do8cFraTu0+g+yLji3bF3Vsb41Zrin+jLU+LT9+qqmUry6lmqyEkGamdLn3C7Eq53tIyqQpZ0GmP9Q0GIXG3x9p6VUKgXyYrmCHN9GU7ak7B2QCIIu6f1J3gVarc69srBE+HXF7cmOESj57r18QWd4JhOzc2yhjE/TfyeOhMmS0+FW6KP7UzNMvzEqLGGJKaioxgIjTN5NlOJktcyMrYHoLIiHtWU+xPrwadsgfM6O2lKVJOXlsXjlwCEPeo8kFS3bl367SOh5xdWb/LJSqTUyMiiju9znYufH2EMYj7V4ocvCIyneCBGrvaxGmVaJfcdov8juyQLKRkuLS9H+nt9SlyFNKZHsOrGCrinufjNV6pgo93xR6n5HNnMHlx2wGAuKtP3bmlV6tUtH3t1R0uoekZuCaOuO/tT5L75cLTPzMGcf+d42aeu2y9IIvQHzspXtuJT9JtPstrMoRkpCpNu8dEFnc65SukueawTi4i4p7r4DmgSaEryPLOOmSau9r28r8BAHFXnbrP/O/VU8U/VV2eX09wa//ty82pSLzivrN9nlxnOzce+7HtiSHuOfxP+fDxP0S7UZcq6jZfKF0EmeNxhuQm29qixcQx32vNlLeQBp9NT1/cc/k3YTmUWB+nLGVyTp4jkA99AxD3gxmc6qHpi3dvbT5XztrfbN5agLN/Tab5xO7fi/vu/guCjyN9vYxB3P/oEGYBOyxfc6/LEL3F+Yg033WK+l6AX8tMZYfWHgl1TiUK6WwqIi7uWYUCTk80yd4tU12aKffcVVhwRRmAuEehd/gKUWF8svVxZVl+aX++eHNpBrr+Tew+Ikzcd7aHCf463VdZXGhQ3POEdZ1n8HFhryRv2y0SVONoTWpIOQw+u4ZWlstnUKqQyfV1lMU96YygMdNlnT699wdl/gjqi6FwAOIeRd375sga45P7649lPCXyzeLN+5D2v4zdx/r4i/vuPsGVFb4eYQzi/g3tAvfX0zGni+4qaXb4TJvYtWj01IYUxuzWxiEzSUGHsoW0HqMr7jUCB/XKN39ZZwsUm7ps3wlIHIC4H8zQ1W7CzjizdHtzTfKe9+WVZw/fQdCjcK4/wkfcd95TvOirZ3qQMYj7tzQIDsZiOwolr0u6bolacVtLOiqTQwRwdqm/2T2rwax8IY1ePU1xrxb6JiJFrjYSJbX912b3IDQOQNyjMDpAWd258JOlh/cWJcren39ydnTHiBO7fxX33dFxis8ew72MQdy/I0f4OX0lMRxzkddcIeX2XihiJcqPGEJEqKg5qupFlXU6lUYhC1r0BMX9qPDqOGQ5zj0pUKD83LUdg8gBiLsav1P9A3c2br6cfyvaLU03VhefrT96EA7DyWM+jKV/9HBxpxm2cy/6LjEGcf8LzsSxtVYe9p/nu6X+NjEgWtpemh0iRG1armqXlL6lhE4hCwJJ5MTdE8ewDTJMoKuNxtw57FA5AHFXabP779n7p3+vlzbWX86vCc/fZ988/Wzsd55wyNlFjt0jn8N2kp87C7ojNTHEPRhXK2r0ZpmkhirJ93anONF0Y6UhRIyyLpX2utvMpOqYabYRE/dTycov+Gg/no/O5FnR6w4g7uptdv+Tv4fD3JN3W7fWP24uPl17E8PpM8/frq0svnx1e+P+A+i6ZLH7xcske67C/T8yBnE/wK2Nce2rPyif2+lEqEKupzVEkKr/s3duP1FlWRjvFPdQlBSUBXWhKCkouchUDYKI3AYHOxFIZh5ISDo8jIkP8zLJZCaZZB56nudvKDcdQOXiheAdVKLihbsCiqKO4KVNeuZp/oTpFieWKHXd55y91/6+l073Q1WfvTbn/Oo731r7sEm+HeX3ibeQvv1CgXuNQd8bk1xOoX7CmhubgXMQwD2Srt6SkiXXF+aX12Zn5+bmNmZmNhc/aGZmZuPn/zD7+u3y/AJgnatujn+F2q9OjAqZOro4NckYwH1HdzTJ5+rOHWTdXfpMgK5OupHTcrwuJKiOyJYVaC4Uch1zS/PEAffK5DJZFZp2Lu8rE6121kwPgA4CuEcMu49clJQm+7f989O/IMXOn4bPntuWkpkSM2nFLdpOFdztST5V7Tt8rq1Ft/ksnUkugd9hDomrQpmOZHJVWUVdx/YWlyjgnuyZRp3aFbDZLWLtUmstQDoI4B5JYxMDAFM5tbo292JJr7GWN8c/ncs0IehYIo7RdqLgvj/ph+rXM6h7dBxK4UhqBZpKRcb2n5WSIQ217CsReSFLvGKAe16yP26CWgWoctpSBK1dAWZDQgD3KGH3k9cBwXJlhX6ZuLPy8pc0/6butvulYTFf0gze+oExgHtkBZJ+pH7t/FRPtq4wXJn49e9uSw0Jr6Ac1CKmW/vZ24sDIoB7bdLfrFHDZrNP5Np1g+oggDvVxIxiWng7t/js6acZmc/Xdf36gfHxy4L20PKZ2k4c3C3Jh7vbvxhyYfqtzpFxZ+IvHBwhKZSVJ/5WEjclE7ZZ2yzGg7s96W/O1KKAJmHt9o9vnlps4DoI4B5lPOTETWCxHCZ7+BGwD7EyH35QTIwxBnCPqj0cHqjebZ9ZXKT3Iz3RrIzNaQ1JotRywXdSvSQ/gXYVGw3uxcl/c5kGWRlXo/C1K8BUdwjgHlUXzqKtUwKTPVwzWJ4TJ/pHLzHtRArcqzg8To9+9ok5Gfr7duYm0nb7x6iAyKa7FHb7R+O2LcdYcG8zNhy2U0xGhj8Gc3Y+0A4CuCMxI7/JHq4VzL08MTh8hzGAe2ziMWg9LfwD8w2ZBpjIYZIS2e1bqjsk7Daqd5glWkif21Bw53G6Efe5Mh2pctSueh/YDgK4xzBjBokZMUz2pSfT0Y6ZejSv/ErdHTrNGMA9VqOUC7uGWcGVQUMe5wlkfuWy27fUKOY8690t1pCKSgzcTTwaQLI4l7BTnh9ehXmgOwjgHktiBuRsmMn+cDaKyR6uOeWj7dfOMwZwj1nFXB6ln5KnXoPOHy2Mm57apGTNir0CbqIDvlAI4K7v31wJ1wqanDIte3tnDvgOArhH143xK2BoMU32cN1TOyjTf/YC00GUwN3L5Ul6/P8fV24UDQfjvG5PoaSsmFsl3Ex3b10I4K7331wuzwErti7JFn5XJQAPArjHMtr93GWwtH4m+5vnj+JC9g96+W+Vl+3UyCRjAPf4VMvlORr4+Gnphr1vt8aHs/4yeWmxSKykgC1gDgHc9f+bK+ZXQleRdCufUgvTHQK4x6SrtzBjRlutrsVtsofrscoZGe3GP1IG9youj9HSrQ/rNfBJHs+wiZwMqSPZQsVlmu2hEMA9LvEZaePlVsJ8KZNOvmYwHgRwjy0xM3QXdK2hyd6XlJaU/V3Vf/0k00+UwD3A5SG6lTDPNPI5HocN7SmSnBdzW0yi7J997SGAe5zik9Jq5VVCj6Q/vdo7TaA8COCOxIyEJnuY3q0quoQXpyYZA7gnpFI+6Q2j/fZ4kgMGzb3hqhqXELvHlJEbArjHKz4Gdy2nGjY5pF3+ogPAPAjgHmtiZngQvC2IyR6uWTXX8V9DY4wB3BNUFp9eMW6hG+3BXZZ51ZHl6BZg89iyQiGAe9yyG/jdX+Zk7BK3KLS3wnSHAO6x6jQSM0ma7C/ucTHZw/VGybXU9IhUgHvs4J5h8DM8xqgMGY+4wm/43jlgDwHcE1ABl+92cqmhS/JJnoUekB4EcI85MXNpFAAetx4sczbZw/R+Qb31HBw+wxjAXQRw7zHat4utOdVWSgYareUGbx1/dQjgnojSuHx3Jo8aWtyyl6DMD9SDAO5IzEhksodp+rVya6r9Eak76FcA9+3g3mH0mBZrTNPhmo5QwsYqQ3MCPdYQwF1ycM9pJPADtg2sBwHckZjhqoXl2c1nGpns4Xql2kSZgWvMKAHcv7C9DJ8tUhDLxXYHaXFjg4FnMdWawe3Sg7uTRBWcCLpDAPe49B8kZnbqPZ3X2mQP15MHimVkrjIGcBcG3I1XTQzXWk8u21FjM2jbmHpB7fKDezmVH7A4jAkCuMenMyMXQemGmOzhQZm3Ki3wlZEbjAHcAe7xtertIThy3JdvyK6xZAHa5Qf3PWTCTpnAPQjgHm9iZmIAtB5msvfpr0WVMjITY4wB3AHun8kb9UoPk8xkO/IM2DQuN5hdfnBvTqVTiHTwHgRwj79R9VY/THZ9TfZwPf1RlYXW94hUgLs0HWpRnedWokcFpelP7h47kF1+cLc5CHUpmL0APgjgHr9uqNmouj6/tvHKEJM9TPf/q8hq631EKsBdFh1RldtDoRK9j2LKB7dTAPcGUpVI7QbxQQB3jHYX3GQP16YarztuDo0xBnAHuCfwqryT8AyUoL6eO/x2EuBeTqwUPguQDwK4J9aoOjWoisn+vk8YPV9XISNjxBGpAHdJlHsg8lUeJz27UFdy9zjA6wTAvTKFWi0wzh0CuKNR9asm++NFQUz2MD16qEBGZvgOYwB3gPtOdluUnAzxmeM6kjv8dhLgbqFXxvY8MB8EcE9YF87CZNdTG+Sx3bAjUgHukuhQxGtsI39WUIEHfjvAPQ5V0auFuRTMBwHck9Dk+ClSJvvT+33iauU2cWwfvXSeMYA7wH1npUXMt/YocMan3aXLbkFfKg1w91P8kzAXA/oggHtSjarnRmGy6xOUmSdN7YO3fmDCCeAumMojXaHXqgJCuvXozbMVgdUpgLsrSLIaDYA+COCe7Gj34UGZTfbp6T4pNEcZ20+Nn2YM4A5wjxIUiQSte1LUYMgsk+Z7xdIIVCcB7k6a1bAi5Q4B3BVsVF2YebPysk8m3SMclLl8jokpgLtY6ohwfZWpqkDkUa23iikbpE4C3IutKAcEAdx3TMyclKxRdXXmJ6m4/eUqMjIAd8XBvSbC5TVXq0ORtRpvlSqAOg1wJxt4CoL6IIA7p0bVK1IB4+21pWl5wP0xMjIAd8XBvSLCC/KmNIUoMter6U45Dk6nAe6H6NbjILAPArjzalS9LBc1zi++k4Tbl2gemTpwjQktgLtAMkcIylh8SmFke6WGG6XDDE4nAe6uMrr1cAL7IIC7so2q67MrMnD7O4pBmcGzF5jg+gPAXY5ndaliHJmm3Th3dXoFqIN7OuF62IF9EMCdZ6Pq0F25+HH51SPhwX2WnuF+avwGE17fA9yFUWGEiTK1yoGkT6uhkJ4gKJ0GuHvqCNfD7AH3QQB3zo2qcnHmwsYTsbn9DcGMzHkmgf4BcBeGVG07X5pXwXCHRqNlFMscUQb3XtIF6QD3QQB3zjozIluj6jOBG1XfL9Ay3PvFz8hs6Y8mQncJucH9SASHrbJdRZQs12SXYBAkFXDPo32sQTq4DwK4o1F1dVPURtXp16Sw/crIJJNEf6d0l5Aa3N2uCJGAEiVRMkWLBlUMlCED7gHaBSkF90EAdy104ZZsjar3hAT3F7TOWjovC7azX/8T4C7IUzpCottUqChLFri475GDViA6EXD3EH8NdQTcBwHc0agqbKPqkwfIyBijY6TuEvKCe0prpOsypjG1wuHuOlpV29abVVRgFCJxNx0VfXdBEtwziBekBNwHAdzRqPpRD+aeChaUeUtmjow8GZmthPvvAe4iyLE/0mX59TWJzSXuzNa9xZ93yjb5e1q6HPq71Zxj7sq+uyAI7rYK4gVpB/dBAHc0qn7S22f3BQL3RSpzZCbGmFz6E627hKTgnpIRcfChR79DZswFWW3+CPEUS31Pr0/XjkDOMfd08DkZcG8lXxELwA8CuGvbqDoqWaPqzE+icPvTH0lkZK6fZLLpL8TuElKCu7W0O+JF5bh1gnZHYF9Mk6MtB9sa9TM7HTaOG8SPgDsdcLeTr4gN4AcB3HGi6vZGVSHmQ95fxhwZY/RXE7G7hITgntLQHOWidEnypjb2xHXci6m+1q2T817Fb3/o+O4C4K41uNfTrwgcdwjgrkOj6sSAXLg5v/jSeHDfREbGGH33LbW7hGzgbt7Vmh+VT7Q3ieuO7k0EEWzehmo93kgc5LY/akDndMA9QL8iJoAfBHDXp1FVqkOZBGhUfb6OjIwhW/W735C7S8gE7uZgQ09TDHTs0LoDLsubuLGX4w9oz+4FvBIDPYBzOuBuSyVfEDSnQgB3vXRj/JRc3Ln8xshG1UcP5cb2i1OTTEr9+Vt6dwnBwb3aXlTYWJodcKZ3Hq6MkUadGifIj+cnueaWvQ1az4rs5bM78lIB53TA/ZB+C1Ox9XfrDGSXNvoK9NtFBeA+SHL9TSYvE42qsWtDamy/OTQmJ7azY7sJ3iVEBfcyt7PH352Ise03axlC6fJzWXZX+S5tX05w+d80ucHmhMBdj9hTndtZvn0u6jff2OoPZ3TpcRxAEbgPklzH5MKiO1NyNareXlsyplF15TYyMgbod9+TvEsICO65dmeHJ+ELcgU1fBEf6Oa38pUBLW33II+wTKdhe8Ba5ihqbMjO/h97Z/7c1HXFcSMv2LElLNmWbUmWbSx5Absm3neMF2zZJIQtlJ0ApaE00EkhpWmztJ20kzKZJu1vVMM4EBtjMMO+EwiYPQXKDoFMUmCGyU9N/oI2IW3BNfJ7eufc7Z3vH6B37z3P15973/ec43IF4qtrPU5/C4G7UXBPRl5D+6ixWRWhBlCX5XIm4o7BR9xHklzLZUOj7p7DsiWq3uNglDknr0em94Cs2B5c8zs1dwnRwD3K1+Q1NKEAHraP9cKufVLZaNGY8gnVc6Ble+qkkTNzHUMsVmVhWXxrC4F72OCehbkSo+MLtTjIrN6aSZgxnEDcR5JcE5fJh0c7JOuoev/KLdbgfpY8MjzKycxTdJcQCtztaU1GL4rRjDKRc73wq29rQkukjaw3OjhLDmt7VFxn6TDxt9Y3FTsTCNzDAXcfnqO9uFTPzX+WD43dc4n7SLJrgYyEdKjnhFw8eunuRZbcPiCnUaZr8y55qT04eWGKqpuEQODuLzOOxjYkEE6sdiAFIKsVaTnTjI6smWXwW2rzNduQkjqKownc9YK7rRzptB3XoXt3dDdnoHhm7NR/iSS9Gl+WkpKkS1Q9//lVZtz+2WUpPTKb+iTG9uCId5XldnHAPb0ZondKDM7gckoRQ9CB1M+y0NiwvOxavRYV666KnxnjJHDXpVIca5srzBNtfSxCrZkcoj6S/FouKyn19e6ULFH1BqNE1TMSYvudnm6Zsf3ZBW0K7xGCgHt6FkjnlOkorUkLanBjYKlBSagd7TY0qnhmWQ154R3ZMhvGEbhrVxnKRzIDpVHd48HjV0bQR1JAL0lLSxJ2VGWRqPo38sgwv27/vdJbhBDgXjAeqFN5GsLgEqq96FGwLcHwMbiMDCmXjZPcmW/geGHJrrUTuHP722hpcBt87WuAnW2ZxHwkBdQ2W2Ji2ntUrkTVm2cGsLn93nnpPDKfyI3tk19tU3uLEADc7bFJQJMpxLi3zmYSB28AHpQjKwwwVTqLyMdVGV03R0M5gbsWWaHXKdEHkPZhKYR0PDkJ+UhKqHGVzNREiapyG2VOyO2R+bd+Pk/1HYI/uKdXQs3F7YcfnS+JVSQq4VsyGahqHYMf+MgASFV8d5mfwF3D6yXqgbYDrnhRPhEfSRFyf01qcOrfeFAuVj119joet38t1VLs3tovObYvfkX9DYI3uCfEwhWCaID3XzcxDIW1EzpdLzHsM1EdesH0yLl1UAuX3FlE4D6c8sU90HYAfd2JchPwkVQh99mS05OEiaoncbj9gURGmQ1y15H5ziXzTJsJ9gfO4O7Pg5uKAxw2ndPZBsMB3ZTeE+5IAtjnteoKyIVzj4wicA+tWFB3O+yB1pYP8tHERbhHUkaWv8hOUNv2SZaoevn0AwRuP36NPDIM9ZN5ptge+IJ7HGTeZzX06OLZV4VuBgbQMP0Mmcg5n54x0AuHkSOgFLhnQLrbwJNA3Q3GT91RXqI9kkJ6Y7L0FCVbR9WbZwbA60PelqX10uav+qV/4Wa/a5LNgSe4FxRCzmQMMLnZuThmKzJAJ+EMr8pmGmrc/YVWhJUrbSVwDyHAqvxxGAdaR3wCl2CQSKLqzV9LD1LSJap2XbgNm6h69ZQcHpmj6+V/2Va9b5q9gSO4l9SBzsQDO7rybD4BsYwEPYCE5WnIxgy73YVkRbZ2thC4P011cJMutuDEr9JYlqqfHO4kxdT2S/lhSrpE1S7QRNXj/5Bhzh9tl98jE1zzhtU8WwM3cLd3wk4kD3Z4qfXcQpIH2bI0PQzKsmA2JU1FbEI7PYPAHf0sNhbvzJpv4M235xLnkZTT8mUKoHuwr3ePZPUhv4RKVP1GijoyCrxji3/RZqaNgRe4+6tg5wEMm846jjFxQBaGzNL//BrEpFQXat6AZUkkgTtuTKsx4+eNTwx3XDEEeSQF9cJLKpB7sH/rbtkSVR9CcPv1++J7ZPaqgO0L28y1L3AC9xxoMIbtveTh+9ndBlgCpFX/01Pxjmvo/qMx6QTuQ6kMaMYZNtz4VYV5AK+1EOORlNT7I5RA9+DeTRvkqg/5hfFE1ZOXyCPD5LY9xWy7Ah9wL4ZeZ9gLd08y77A0wdm1dRfcxLtw9zD4juH2EbgPIaCjYLkDO362JeEUVspIjiCR1FTbD55VA927Zeuoeu7Te8bA/bTYFWU+3NevwGu1xnzYzgfcE+A/a2dBjk8ECqgEaweao/PJ1lS0sLO5FW2OJHD/P9XCXxaXNgAAIABJREFUTHgmg/g59Nc0ciZFkEjK6s2fqUHuwf6NktWHvH/llgFuv3VT5CTcLTtUeKU+2dL1w6UTCdwZpKUi/PeHvHDPEKI8xXQwftZpT2lCCntUB6ulqyoicB8smLSJVjYBbNKZpJpD3E5SWz9apQi6S5ioejfc+pAXLwjskek9pIT/6tFBcOWLM6zm2hDYg3tLHvwsOiDt94KUlfNCpaim6btwRzKJj8tk95flcBK4DxJMVFmdvbw+PTVRa8knQ1Jd1uWLVUF32RJVj50/fTUscP+cPDLI/b0eKzS6aMpzBO6IiqpCmAVg751RwtzeJZfAzChRV2XLQpyw5zBta+lOI3B/UuNAcovZnb3yRmt2YDWY7K6FZE61LVymCrrLl6h67Yb+RNW/HyOPDOb5b9eg81/71GnmKS3DGtxbMLgdsIZ7qkBf3W2BdcwRz4Jz4V7C+FI0pZrA/Qn52T/S4Nkr1q7tMEH120km0QsLJiuD7uonql48J+Q89vQeUALb998ZYnJ/mD+LwB2F21H+zcI1TS2vFyo6c2E+cugw/+ShhD3exnrlLC4C98dVDvHIJqYhrNTgFbMHvBEkkmnQ/VV1bt37vzooV6LqzTMDesD9rIiz262GR6b746ce+9b+xhTX7nEKcHtmAtT47NmChacYZFo6mtSieExcPJYuhsD9MYGUF61kfPjKH+47QcYYYjkSobusOrBd3UTVAfGMMl0HN6rxtSb0a/PeHBO43ZmCuz0PZQ4BsAGOFy08lniIaaVrrsNYn6gKt8P1HFIC3O0Qj2T+OcqWH8Kbn5BGLhkSobvkiaqb5UL3U2eva+L2zy6LNvKdR5TwyAT7eofNj3jnxbcI3OGUgFMF2gvWrChWvPhYQczamg9MxepwOwtyN9mNeyaH978jbuihj3ZlRpBIpkT3Z15WB91lTFQ9OTy4nxFs1Hd6tinxtuzQ2Ahg6q8I3KEUgzMFME+ExyZggKwQEZqk8WFJLfBRn8tv7WII3P+jAohH8rnhdjcFBvU0sOeMzbVEkEhmVdsbIxRC9+79H8p17X759INhuP2GWEaZzbvU+D6zS0ch0T8pje4Mwb0YZwYpUD1GC+qEjJANwHYeqTGFbwJ81AM8CWssgfv3AvkjmcAtkN7sfJevJCPHU1s9sqaU6raTzC7LK68phO79G7fIhe7DJKreOy/QWDcc7VPiJdm2/7C+ia9VGN3ZgTvWfTZUp8+ELEFD5AZoJ6QtPdUaDR51H98i27EE7o8E0oc31UbARCKJoFmrX9+9tV8hdj8kW6LqhdsXZTDKfLS9W5GM1J36Jz9V2eqQzMA9GqtuG1QtyICwMXIYvy7V1qu+AzzqJZxRz+IjcP9OMOX5ywiYSCTualy69pFx+eNtKl27y5Wo2tX11ETVrwVqkarGu7E+zESI9tWNBO6GCkFiFW6rAKqDkiru93draSSbvMJJ0FF3unmvnS2DwP1bwSxDy3SCJhKJr976YKVy96mSJqr+9dKXQySqPjhFLVJBtcvAiW7FNAJ3Az6UGqwJjASqVFkpcpQKDZ9OtJR28UYCR93v4L90SekE7nB/56nU74hE4nrZvmiQg3nTepXQvVuvkZl/ourDQdx+/JoYHhk1WqQG+/cZTF3+7fME7sIVWrRE80QwZjJ8PPFr8Kwsgf7KIsRhqL6cwB2qB++6daOI3EkkXvrp/LeHaoeplNk9KFui6rEvBo4/Du63hfDI7FfDRRWiR6pmvTeDwD1MywSa1TkbZoDjBC9UYTHs5NfQE9YJHPUaMdauI5HAHa6m/bh6wicSiYPapk1tfwqaHN6vktk9eKjnhFzsfu7Te//l9qv8jTKqtEgN9h0BsU61/5HAPayrV7xeKUDJhx2ix6muCL0YZ6Uc5T/1q4HAPWIm2JyjmgmhSCTWapyyImRfTEWMEbJ2VL1/5db3Rpl/cm+RukmN8o+amy1p0GqrYtsBE3DPRxt+Eowtu0T8QBm9N/YPW08duGtqqzC1A60eAvdcwFl7KgijSCSWen7O66a5ZoW9bWXnmLl099v6kN9wHsaJnm5Fjm67IZdlvmLkzgLcJ+ENvxnmi4AMJGLUpVw1zO+nwHrBo8RZU6u3yOzgbvWCfkErSyGUIpFY6bnVKzXRiWJmd+k6qp4//fDWfa4jUOUNgK/q/2cCd50qQMxnS+PIX4xlM2hBnzvM7+fBRl0oQ0VWgtlv3CMKQCeeXkU0RSKxwfYP3jFdKZH/uSUkS1Tl2TJ1w1FFCgz19cJ/bGlXK0OVAbgX4o0+yQ4xwCI5WqhnGrMFRQ/z8/GgQa8Va+3iTQ/uObAzT/RlElGRSOhqnLNSF6B0bVHLMSNdoiq1SDV6WDuIsj4/nkjgLgrCwaTcTZAkVgZrQoYuzmgDtZMUCVY10B1tdnAPQM/d7qP6MiQSrlKWrjBvKUBZE1X5tEhVwyPTvw+tjv8UAnc9Rpk6xNGDOGX8yZLEKjnV0DwbQv54NmjUa0Rbuzyzg3sn/OztvlIiKxIJTzMWmbv5jqyJqtQiNcysBnBr++NX7irlp6KDexPi4GFqyiyRJljZhqzao0L+NmhNGY9JXnSJwL0U5a+7daaN6IpEQtHE1e1UylvWRFV22nNEkVPa3k24x7NZBO6aVY05+BpTXbgbjZY9KcQvW/yAQf8Xe+e601Z2xXEPEAjFJBjMLZhbAsTcBAqQEGAScZsGQqWqijSVWrXSaKR+Gc0rjNqPrfq1rcwRMib4bmQcA+ESEOI18gTzFA1hkiHGx5jjdfbZa+//7wG2tvdeJL+z91prl0uYRFFfobe4Ny7YdKM2iGR3AGzgp+9KzZ5QKmPG2D0JwtKvvr0VVmOXids/5uPvEPdiaW6zc/LTeh24u1wzJdlnoSrhPud91mZe6i3urnbb/sgXZ2dgWQCQ8ts/vSjZVBR7lcnYT7+GqSt5r7L59sj+1VKpI6S94u55YufcGykOURcaOG1XSfWpSwUGHiTcdTnvMBqb9Rb3Z3b+nfvmO6BaAJDx+z/QmF3sjVLqnnqDQtVL7R9PVWn/uCNivf4LcS+SSlvnTnJKvMRqu9pKacc9WmDgJsJdn5dz7br0FveHAXu/0dtnX0G3ACDhh7/R5VIcq5UxE49m4OxKtX9MiEmBegFxL/YO3d7KNZJT4gFe+zVeym81N6uOOrpdb5W1ePuB1uLuLQ/YTetgH2pVASjd23+kNJZMJI5CVdXaPyrS8nNrT9xe/hXiXtwhnM1STHFK/IDZfnlLKSJ9bjrsFOG2L8u6dpNaizvRK8PXZZ61jA+UQbwAKIHf/UisLKplzGheqKpMavthekfcqsV+A3GXIFGG5pR4jtuGfV/Cj602HfUp4TWLvGvn01rc/QFBDFe/fIKTdwAs8s13L+i15X14Uyl11/dF1ZAqFyi7EaHrloS4F0VTo71TpzglrvBy2zBvCS+c3jIdlbAZZJe8a9entbjPuAPiWPA9e9gABQPg5vzFHnFRLWNGz0JVVVLbBbR/zEkuSkHci6Fu0uap9xBMsprfjpWS2W/Wtm+A8HNN5kSJdp3F3XU3IBZ3a89sN+wdgBvxk33ykk2mUKjKOrV9L4X7EmvpRdsGxL0Yauyeeq/ax8NmvHLT/9xZum0fknnturUW99mAA7hvTVeh3QwARfMvO/3lTLGMGZHFjUhtZ/JEaj6iBsS9GPrtbuz8mOJC38twy0ooMrxnMuQ02bbflzu5uVVnce/wBJxheKWqqx5CBkAR/GB7ivSaWoWqGwktClUzUTUynZzJcIqlIO5yNPOeI5jkCsctW6bvoUOX4l4p99r5dRZ3wu8zK1/yvsE5HL0DcA3/tN9iskm11F2DQlVVbko2jx3ZqqPz1YO4F5HqbHsz7xGCWU5x3LJa65q90Gjb5cUF5ZI/oOmd0FnclwNO099S2eeFmwFgyj/ElDgeolAVXdvF1ySEnPns2Tcg7kVltvbZPnOKLu487+9L+GR5YtvlxQVPZV+7ezqLe21vQAI8TSNTSJwBID9/FJQwndhQ69g9/i6kqLZn1WjCn9o4cGgB33/0doi7DDkobQQJu6M896yEx+v9eQe8TbbvfbKvXafO4u6qCshC89JQBxwNgCv8O4RzXLyo+usH1okaJQlbzm3O+i+3SxD3aw/V7E9m7dbhfDg/dyqIbW+Rat9H5X80c1FncW9YCMiDu3Wkqw2eBsAX/EdkwWPkVK2MGdUKVTPv9tG3s0QOPlUHQNyvY8T+iVMcHvqZbtqK5V/syzec1+OsyArlpc7iTpwpRFAT0V45BlUD4JK4vxB6oBtDa3dUpNrMdsLBG4v052lA3K/771hACusjiu+LSp5Ybwg5nG8pJ6n2ve6x/AFP2hORnbjXewLSMTqyfAe6BsAF/4Mesk3KIH5sSY1bEEc77WcuVXJA3K/hnoCJjwaABfIlFj+nGvwuh4hv0VncXTVSRmVF9RB6zQBwzlfiPSeU2FarUNXJI16qxuNqVKQepncc/fi53Pse4n5N08EZ++fdVgcJt0J3nrUcoRp8nEPE+7UW9/oFSQOzvGW+AdIGwFdv0XCwdPajO4ytPRhR47Gl3YizJQfpL9LAIO6FeSZg3mNwcEt8n2ct26kG/5pDxFPmyvATd9egvLFZ/mgIOTNAe3FPZR2RnB1FXub8nKKRzDLV9pAaFamO99Y/yrlHgrgXZELEyZkfDm6Jmjxr2U80diuPkG/XWtzbhmUOz4mlSZgb0FvcjTWHGpIHDxRr7b4bYdjafSetRMnBYdrh12yD0dyqa4h7QYS8ej8CB7dEe57sCaqxB3mE/LjW4i79J+9o1SvIG9BZ3I09x2znvWKFqpvhM17afhbewicTSe7X1bINiHsh+oX0Zm6Hg1vToqtL+ZBq7G4eIT+gt7jfaZI9Rut8XUiZARqLuxF1ME8jsqtYxkyMj7ar0UjG8RyZD1GcztPkFOLudIa7yzUBB7eEp9a2E+gFJrZVNqy1uLs6y+UP096qehgc0FbcU452RVGtUJVLxkxWiUYym8fOX3IkDvPNDOJeqMJMyEvmHVBwi1xttf6UaGSffjHPUtxd37P4wpzuLoPEAT3F3UhFnM2zju4rpe4cMmYOlGjJGY86/5F0ZFKqAXEvwIiQaaOpjFX6bMs6GucS837Nxb3MxyNUW+eRMQP0FHcjFXVWfoKK9BFnkjETPDlVYZE3DiQo7g2bTQ/ibo5bTEvAORi4ReavrCXVU1Zs+oF0ai7urpleJsE6/Ay93YGW4m4Yx0GnDy4VK1SNS9vaPZhQoROnDDkyq6GoedBC3M1ZETPtcRg4VQlCLVFfcw+bty/LKjQXd1e3h0u4Lowg2R1oKe7G9munLSgTWVMsY+a9jN5+Elfis0iGQoKCX0AQd3PGxEx7CQZukZ7cpaTqBtnEJ+h9uou7q5JPwHqedkLmgIbibmxKkHiwvpdSKmNGhmSOnCSZOJaViFjhhkgQd1PauamXdlwpIe0jGniJT9APai/uZT2MQrauZQw6B/QTd8MIB523odeKFarG34Wg7bQXGW+PpOilmbxmnhB3U7oETbsZBm6RxdylnCIa2M8n6Ie0F3eX9y6noHW39EHogH7ibmzLkNuh2ouqh7L0mFFC2yUpHThKXns1BHE3476gNhBl5TBwq1tkV9YEo7fqOyHurplbvOK2fRJKB7QTd2MrLcX5sGKt3VN7WQm0PcL/KkOCt5YutL2YjC6IO63I3By0cbde7Ze7lkTlAm5G/T/ulEPcXQMVvALXPf01pA7oJu6GEZdDjVQrVN09wWl76Tky61LEZpGFGBB3szqyGW5HphrSlrOWj2iG7eUU9a0Qd06tZT7981IzA60Duom7YexJ0sZQsULV/WgGp+0l5chk5AjLZJEThribUC1q1n3wb8u8yllLoveXfJyifgXi/gG/m1vsVox7IXZAN3E3DiNBOdRdsULVLYeS3VU4bd9OyBGT2Z+LnjLE3QRhFWRD8G/LjNlz+rzEKeoHIe7nPGdn7oFbD2F2QDdxN4w1Wd79VKxQNbW37sBpO3tt35Kjj8zq6o3e94W456dV2Kz98G/LLOesJdErmpWcov45xP0js/zC1/20A24HdBN3w9hYl0TdVXtRdVtsC/LQO/aXFrLkyAQPtm80b4h7fl4Km3Ul/NsyXTlrSVSo+S2nqF+GuF/A8QXi4TnIHdBO3I1U8kwWdQ9FdlVS97UTYVkfO2n2Hz2y5MgET05vOHOIe17KxR2F3YZ/U4l7G7c0KQoGIO6MzT3Q8hh6B3QT9/OU7NfSvBykVn9IQXWq/Kt7t/YkufjJWKi2gLjnZUXcrHvg31Ti/timmlepaYC4f6KKYwxX4NAd6Cfucqn7jlKFqpv2r+yN8rGl5DAtSX+j15YuLiDuRSVP20gL/Jtqm54QDdvGKuw9EPdPPPdwjOIatJcB+om7XOoe5K+iwupUM/yzi7YTksTdWdjabQ/EPR+9d8TN2gf/tkz3l0tJ1FnTwyvshyHun3m4wDGMmwegeEA/cZdL3VffK1WoatszoOvHm/isIcs3svobIO75GBQ46wfwb6pk9G6iikFeYd8Kcf+VsWGOcbzgh+MBDcX9g7ofn8mj7qHEtkLqHo/SJ4MEE+w7aEqTI7NaSjdSiHse3J0CZ70I/7ZMzj4t04zayivsH0DcL/GqmWUkV7fB8oCG4m4YqTdZedR9NavSi6qpJO2x+3r4kPuSbMiSIxM8WSvld0Dc87DI8MBURzw5ycFdNMPe5RX2LRD3y3TwvMJqqofmAR3FXXz78esKVeNKHbtTJSOdpeP8P2Rk+UbMlNoBH+Keh1mRs26GgFvlQc5SDtkzrOQ8grh/QeM9N8dgHp6E5wE9xd0w1iIhedQ9GEuqdOy+/a703JDMCf9HZuXJkbFakQpxL5wpI/Tw6z4E3Cr3cpZyimZYH6+wX4G459A1wfL+CH0hga7iLpNWXaiVSoWqqWSilO+io+gG/w+Z3UhQktgi6YAPcXda3Poh4FbJfeF0nmbYFl5h3wNxz+Uxx8IRt/slTA/oKu7n7cclqlNdDfEvw/yiCHgjaqmVSjAbPlXhy0WWHJkgUf0zxP0q80JnPQEBt8qTnKV8TjPsI15hXwNxv4J3iWVAD0L1gLbifl6nGpNI3RV7UdUw4uFY6GbSHv1ZhYsHeb4IQxGqOgGI+xXKG4TOehgCbpH+Wog7xN2EIZY3WX+G6wF9xf1jRoNEye6rmcipUupupOJ7kaJO3jOx9IYany3yRJS1N1Ih7kUyLXbWyHG3SnXuUvqRKgNx/0RDDceYrqmF7QGNxd0w9qMyJbsHY0lDNTbfhCMx00PonVjkeGNflQ8VaXJkaFLbIe7mDImdNbrKWGUqdym/RXEqxJ35ofsSbA9oLe4yvWz5y0HpoaEgW7vJt+lo5CC2/oFsLHZwEg3vvdlVqSj3UJocmeABccUExD2XCq/YWaOPu9WNuvJmzRzNwO28wh7tIJU6dL8N3QN6i7tsnd1VeC9UQ+TJkaFLbYe4m/J/9s5sJ64rC8OkIBXcDHYNZjBFGcxYDIYYEzMYDwwdGVDnBgmp5VYi2blwR5a6o6jTlizftNQvEOXmGFm4bAYziRljBsviNfwE/RSddmh5YKqCdc7+19n/9wCVnM322d85519reT1+h5NTj0nTnqXkACaK+yc7olnfvv6CvkdsF/eRkSmosPvjp9tzVGFNGRmcOuedbRe+YlDcTWtbBRX8WITO71nKfplfLta17Sso7geTH+xVt7NrKXzEenEfGRl7CZWY8ddEVX+zMQ/TWfTpmitXSHE3Le4xOvixaN+7lOUyv5zQte0LKe6HEW86o+2RtJ/GRyjuIyOzz6ASM4+X/TRRlRkZL6LtCy5dI8XdtLgX0cGPQ+bQ3qWsFhKngKptn6C4H06btjRabx2Vj1Dc3yVmJhehClUn1ynGzMik2Ex0y73NQnE3Le6VlPDjENxnKVuEfjuiadcHQhT3o5aoTFkF+IU4nY9Q3HcTM5ssVCUpbpZtmIzMzribDXoo7qbF/TYl/BgU7Nfvekjox7s07fq4Q3E/Wt27dXVdjeVT+gjF/f89ZqZHkdx9k4WqmExNJm1JVVHcTYt7kBaePq37unWJ0K+Xa9r1VyjuqZDXrarBTD2lj1DcP1AypKlMjxcnnlCT0TIyOAURyYlVt6+W4m5a3Gup4WmTW7P/WgqlRlS19WiguKfG2eECRTucBaqE4v4Bc1hTmYQHYRL/ZGQ8qYOguJsW9zJ6eNpWc/2AtayS+f1rmnb9ZYp7yrRUhrTs8USY2kco7h8nZqDUnYWqzMjs80D30pMcFcXdtLhXU8TT9fYD34gL1SBWatr12RT3NAifa1Wyy4sC9D5Ccf+IjXmoxIz4IHuiOyPj3YaguJsW9y6aeHpkdh+4lkKziPo07foYxT0tosOluSr2+QC9j1DcP7W0mWWo1+6brvYOISk0HYKJULnZ/pHijibuEap4WjS2HbyWl2T+E72aXnZWUdzTflaur1Kw0XsZliEU972svobqMcNCVaMZGZhPMG/Hvew1RHE3Le4ZvZTxNLh0WIvrHKH/yJCeTR/JpbinT37/YCZ+WIbiRyju+yVmxnegXru/4ERVIyzhDNZ9seTtpVPcjYt7MW08ZaqGD11KqdaaZXo2vViJhFXi/hslHUXolardND9CcdeQmGGhqufM4WRkkhNvvL56irtxcS+ij6caHqgvOXwpO4xKrBEGKO7H/1pRG4N29wtRqh+huB+QmJlIIqk7C1U9ZWN+0Y4RqRR3VHFvopGnROLakYPgpV4/KwopVFLcT0K8uzILd8sHqX6E4q4lMcNCVa9YnYD5oy/PGFkBirtxcb9MJz+aUFF3Cq8fw1LPCHo2fTPF/YRE+3NQa1WzrtL9CMX94MTM0gsodfdgZCYBikklX5sqTL5IcTct7g3U8iNozumOp7SUAamKwy4tez6eS3E/OYGWYClkaOYW3Y9Q3BUlZrwawGNvRgbnM8vz+Q1jy0BxNy7uV6RO+cwsf9H6efPpzuy75RHv3z8Pa9nzcnN3bRb3/1FS1lSI96HpPOWPUNwPZQwsMbPCQlUbHtOerplsJURxNy7uYo3cz/GgkJpGpGZ2ajbFXZCveto/xzL3Sv6bJhT3o8ITz6ahWruPet0c0JKMDE4wyngpMsXduLhnNAod8n08KKQauVdpueBiirsw4eH2ZqBX7kP8R00o7kcCNIlndxwPC1WFP6xsw3xYWdky/k2F4m5e3KVeE4dKrD8o7koJU52O6w3nUtzd+AhWc60UZEATU+6E4q6sZpGFqn5+MNscB6hioLibF/fbUod8jfUHRbnUUt7Ucb21DsXdJc623D1VmGtc3DPD1D9CcWehqs0swEShUFJQFHfz4t4jdcjXW39QxKWWslTH9XZS3N199V4e7DScer9N/SMUd309RzhRVepTyhrMiNTFiSmQRaG4mxd3sbYyFTwppDpyh+Iarrakl+LuwdNg3XBTn7HkTBbHpxKKexqFqq+g1J2Fqid8FJuHycjsANUtUNzNi3s0ZJVtuopUvYBTq+FqJUcAUNwPJb9loLLwjAlz76H/EYp7WnnoRRaq+qX9I0y7oOWZWaCFobibF/eMQp7xUojVC8Q0XO0gxd1TIjXnCjyXdzaLIhT39JjDSVf8Xqg6vUAJ11xubG5EKsUdV9zF/OuS9SeFWL2Ahq8X0V6Ku+fEy7ILvK1ZvUIBJBT3NAFr7c5CVcXtH3fwPplQ3AHE/bLUEd9rfR5WrF7AuYt/scMOxd2MvA+fSrAjJCG44o5XqLoyOUUdTz3uBDQiFXB9KO4A4l4tdsb3235S5Iu9hC7Av9hSirsx8trqvUrNZOXTAAnF/RhZC5xRm7uFqlA5adyMDE6BMWrIieIOIO5RsZYV7dYfFXIyC59QGDpDcTfK1euxkBfmbv3jOKG4H/vNLdZE1R0Wqh6ZkXkJU6DwfH4DdJEo7gDinnGaveOkqBfTpSb0S73mUNxNE6/1wN35OE4o7j7wQBaqqmoJ9HQN9/sIxR1B3MV6oTgdth8V/XIJhQj2leY3Utwx3L3U5cxM61kqIKG4H5sFFqoqAWhEKvbzFcUdQdzl+nHHbD8qInISBV6e2uNQ3EEIB90dr1pDBSQUdxaq+jzajtPEcwV94i3FHUHcr4od8blh28+KYrG1bM6DvtACijsOeeWnXJytyr4yhOJ+QiucAStUfbXEQtWPnq1wRqQq+CLyM8UdQNwzmsXO+KDtZ0W7nC+VIV9nuUNxhyIerHJL3AupgITifuL49FYSyt1ZqPqeJxNJZmTS4D7FHUHcc2x5Tew+ggkS6JmVMYo7GvnDBS6Zu/Xf0QjF3ZeFqs/o7L+B0/7xOXpGZpe/UNwRxL3BktfEHnBVcKwlcB++NofiDkh1zBVxH6YDEoq7iCNOQ6k7C1WRou1q/hgP/XSXUCzuEbmechW2HxbFVrxyj1HcQdW91AVxZ0NIQnEXYh2stfvixBuLtX0MJto+qqhP53cUdwhxz6iQO+RbLD8sztnQzkP8hTvFXYx++cDMBTogobj7tlD1xYyl2r4KE23XkpF5x70bFHcMcf9C7pAftPywkKzaLEatGCiluOMS6GmV/utcpQQSirsfjXG3UBV2RqeLz0840XZlgSVfvXBXLe4tcmd8aMjuwyK/V1CYejCvscGhuCMTvsRO7oR8Biw/Yy83WahqkDmYQuHRV8pW/h/+msinWdzzEnKHfI7lp0WRoDBVlUA+mzRT3MFpkJ1re5kSSCjuwiywUNUUG/OLKCUGW+vK1u7e3/11l9As7hmVgq/cz9t9WgxIGtM1xCu86VDc0YkPSv51TlECCcVd3h/BJqou2jFRdWF6FGTBN8f1PSvd99ldQrW4lwme8p12nxZhwYaQTibgU1C4l+KugG7BpHsxJZBQ3K0oVP2Pzyeqzi4tMyPDgLtPxD0qKGO5ljeEVXTcAAAgAElEQVSWOS0ptKV419fpUNw10FUo9xUtnxZIKO6uMAXWH3Jn3scTVXG6tuvLyLzjR9/dJVSLu9D/Paxsesllfw+/KXMo7jqIyHXbt7zinFDcXS1UBZuoOrHqT20f295hRuZEfOu/u4RucRdtFNJv9XHxlWRWxkmAteKLXKC4ayEq1razmhZI1PFQjxCtvh6Fcvena/5LzExNJlHySEs6V/DL73x4l9At7pJZGedCidXnRZ+o0hZhXVylQ3HX885dKi3TQQsk6vizqkYnYIWqqkYCpfJoNAEzqlZrBfC9+368S+gW9wzRLhTZVp8XslkZpxbp2hocirsipMaBsR8k0ce32somwQpV/dPaHaci9e242p6bdx758i6hXNxFjSy3zebzYkg0K+P0duFcWriV4q4KoakCTbRAoo7v1bnRm61FrMSML1q7z66BDLvS2Udml7/d8OddQrm4R7MkPazY6jYUslkZpyCKcmFnKxyK+0FE4lG8rdgVYiN3Yit39OnR3BpWoeqK+sTMxvwKSkbmjd5V/PIPAZ/eJJSLe8YtABHzCdeFrbYd5cLOORT3PQTqBppin7+rETnTWjBYXxbx323pEiWQ6ONXpWnsJJS7a35NPDKFsphvxzV32fzsX769SWgX9xZREQuVW3xeRKRHFIHE3MscivunH6o6OhN7gmIF9XUwe1HmbxajBBJ9BH5S+pIYrFB1c1tpYgamIvXFjOouPQ/+6N+bhHZxzygWNbHGsMUHhnTrlUyImVZ1WRT3Tx52Kw96RCu4C9JZKSyyRBWUQKKQR99ojWU/ewWl7ipjHgsga5hU20fmd/75vZ/vEerF/aasivVZHHMvl/baRoAJOPFmh+L+IdVFh1Uht16LI2zFfJFK6QI6INHIr3p1CWyi6qiyl8YwjWR2xpVPov3lhq9vEerFPR6SdTGLe0IGxB232HhwOtrnUNw/YOjIhi2ttQj1PCKxrUIqIFHJj5q7ocwsQ712V6Sgsyg1vsszyidZ/fRvn98h1It7Rqesi+VaPLUlKG62McMfMPI6HYr7e84GUxHiCvNZ94DI43gxDZCoJO8X1doEVqianHiiojXPNkaNQPL1E93WPnLv54Df7xD6xb1GOpltb4FqOCSutp1GzT2Q41DcP/j7ptgXM9N4WXFEJvdGAyRKzf2BbnUaAytUXZ7B7/+4yA8UMvz1T/6/QegX90CxsI1lXbH2uBiUd9vKPIPXk+1Q3N9T3Zjyj+cYbu7exuJUYjcXldvT7LPpUajEzPwG8GqtbyX5gMOUjE3inlErrWOJOlsPizYX5PaWua9W9Q7F/T0N6XxP6TPbXmmA7SCJ5fzwjXaFWp+HKlRNTi+gfp+YTDIjI8OdH/KsuDv4QNyjCZq7FKddsNscU+YedCju7+lILweVMJoYKxJZIg5gIop59FC9Rs2tLYMlZgCLLkHetvsgIzNy7+LXltwcfCDuLrxYTZy39Kzodvzzzt319+2qxL3nTJq/HzIYdI/IFFucovwRxXz9YEQ/YIWqz+fB9HT9v+ydeVNU2RnG79AsGrqRpkGafV/sxoJhEbBlEWFEQGdUDMmM42QsqpJUjKZS5VQy/hHHmpQZJ1WzVpK69h8gS0NDU+yLLI7F1/ATzKfIODGKiNjLOeee857n+QL0Ped28zvveZ73laPaPryi/qv27kft2vw2UAB3DpnK4mN6/qvIKOZC7lbcXgngdoXAvTyK70ipZdOYBtHaFYIM4w+/J4DuY6vDUjlmZOoxIwe2P3i0rP5r9vbHH2r0y0AB3JmP/HzaAvqElNuV39JYV1TnaeGWHaznArh9wnvLOM6YAPcX6o/KTpZpkWUshdHxsR7kB6mtf7xPgNyfBlXhmJEW20elju2Gq0++0OqHgQS4N9o5kHuaXBt1otDrznrRhftI18GTTRzw3dXJhXDzBE9iSveZAPcdyxFl5yVbmyUuJ1Zxc41HMkBU9Me/UEB3/7pcQdUnWzPA9mcemRCBk+HK6A+f/vOSQ5+fBRLgzijLtsst0yLNJjnKszP35Cp3JfOLgWwuhGs/LPQc5MozAe47FH07+1wLzq/5rNLm+k5kgOjovb+SIHd/aHpSJnSfn1gDtg9J22gnMmx/8r/HuXr+nC6/CjTAvY5Dyd08Kkk/9zTvPv23nT7GdJLPp+RultWJW7GWTBPgvkOxRI4bOoS/8M2stqfFgCD19f1bNNBdtqCqhdS6FpCgyf2SxWcXVti+Y9ZX94WLGQB3ZcCdS8nd7KySYIPqfM43FbPLFSi5m6ZNGAEWNZgA951nsdjWwyc47lHF6hSemm5AEAGd/s3viKD72OqGTOhukU9Eimr78OoMgRdqZmv3iN7r994DuKsC7nVcuCw1Kc7i5+o/aBeNVic4ldxNe7aYs/BJpwlw36nqGP9SQ6XIr0FBPKvdqQHxQUTU/tG7RNDdPydVUHVDPLoHJai20/DI+MfGR/d4uNtXrgHc1QB3I5cPmfW5rHyojFZbmK4eln6ZbG6cWyLAMO2qNU2A+055Yj/I5Imba5CTxWx3MH8JoqMPP36bCrqvj2/r29l9OSDBI5PwyPjXZ+df84Ddd6gHVamAexMnNKux0Oje3xV+NfuUAiV302wo5H71kmAC3F8Wi5OMM1tQT/d0hrFiL2gPoiPHF+9TIXfJgqoPAkFh1w0P4ZFhdnGxr9/oVxdJozsVcOdVcjdtvVY9UVUkAG1n2PqOX8ndtJ/hCoAZSU4T4P6yCthYxsuE9FZMYXlfgm6QEC19/Scy6C5XUHXo4ZyQ48oiPDLiLi6+ugVwlx/cPXZedJZrTUf3tsgeyFnB7C/n8wx3FnPs0VfQZZoA911KZvWwJU3c3/kMpqPUPAYE0dL3hNBdromqkwu8H3fLeoPQ/CYJj0y4FxdfXgK4yw7u7ADlFcVXWvA4iZEeROLZccpJnrBrT87nVK1NtJkA993KYWd8svs491dMZ9ocqjPDgCCgu9RB1SF50J3rUCYZLhg2xkl4ZEIL4V9c3DkLcJcc3NP4WbPNXNEdoV19kX/ITGYulJQarrh7hEuXkqJM0wS4v6IOls/rrOZ5++QqYXprlgvIgyjq608IobtUQdXR2XU+PQtXJPDIcL9SsKr/4766ce80wF1qcDeSOBKazSu0J3RRWTQfMpnZ36/iDLxdzKcxpR20mwD3PcS4yY7tADd0L8+SYXMgSGqdvnjh/uKPITroLlVQdejhCPsU5cSSBPnbxzTOebMRr+XVvwHcpQb3nDKejJYgbhqTqzo1us/IzuZewpl47T6mDQbzs22mCXDf6/KE+cJwQvdjfaxPXkWAPIiazp6//jONbG/NECq7BzclCqpujLNsDzm2ZX2x/f72+BiN9ySqwVXdNwkW3QmBu1HJl9JKyoU8RdzA0Wg/YQ2za4Em7vVrZ3I/sxNbYoNpAtz33kgeW9fMPPbp8rI/YGBuKkRLjku/7O5+Ma9+nRC6SxVUfTDF6EZjZvqhBB7+xWndAxFfngO4SwzujsOcy8S1AubQNMVS7E6U7L3Yn/9KmfBffqtV2K4CuCfy+Sa4mZaz81vj2R8USwB6ECW1n79qWftxIQ3+HkkUVF0KjMTM7iOBeQm8P0TaP0aSSH1VvyU3SpUSuBt1vOvEqX2cW8x5amN6hAZmg17T4gVwr91dEWtMteVAp2kC3F8rbnNks3pZvWv5Xi5bWA/Ug+jo3L27dKlMxqDq/e2JuejZfWxlal6G8weRa5mxWN+Mu78GuMsL7sYB7qiWWstxlGpjzAnLVmafpVcM+tbUx9AcMqUq126aAPd9lMXv4TuTWXwVmko5xRNaAHsQFZ29eeN1YzBXKKF7aEGmiar3l6ZWowHf4NakFJcHREak+tdnYz8E3SVWc6cF7q4yAbR2qINPg+hyd+wUeoSZsddxSBD8Ot2noutj6ck+alos6cE9jm9oN7M1tqBCege3tywLtAcR0bVv/q5B8vB5AHFeJnYfWpydiwB/Q8tbU3JcG/Doj2ONhSrA5BR0tR3gLi24c+9j+KzDTD3zGUKuQTa10QF25X+nMP6NL62K0HfhaPLWmNZLenBP4+52yjsV7XchpbCUo83JC96DSOjcze439vojZXaXa6Lqz/C+OR3GCq+PzE7KcuigMiI1NPKQ1ZJ8A3CXF9wNtxhic/ZVONh9aEcRM78Aw0hetkgEduadbAx3RdOOlx4xpZD04O4RsnWDxyKn9p5SvimKOhAfREDvfHs7rAjiCCV0lyuo+sw2MxkYn368p+s9FFzYCiwuyfNZn9AYkeqfWd1gtyjdpPq5UwP3fmFZxQQvo6Bq3WWGBp9Udk22c4oFY3C8O7HiDeXb9LrK0gRTGkkP7k1i1sF+OLsnfL9TXGN9Lu+vaU0cmA9SXo7PrutmaJYyqPrihLQ9PDkVmB1fXV0d/0mzm1OTw0uSfUYiI1KjGba0n364A3CXF9yNQYHclpUUa3/IlIpqxhw6yG4pe6xIfpblXh7sKXjFqp9yrKjS25fpNKWS9OBeIfDOpKS18MSbT4Plg30irksSAX2Q8rr2ZSRkMjqxRgndJQuqKqIHj4jYppYDrIdydbcD3OUF97g8oeiWebko6qhqQW8t+8Kjm+FanrEOiTuLu3J9vtLk5Gafz91VE29KKYD77mNXbVJH4961d5enMLEvM1XQKSIN1AepXm7//EbEg+2XSTlmJAuqyq/RWRpB5dCPPObN3gK4ywvuYjqQv+zwCN+e/byAXNd7kE8HnHiG3vucGhOCVSZyfC+pTfaebDve8ZMqexO92cnuLLHfSjewD1JcZy9E1QJwJUQJ3WdkC6rKLCqtQcdYWtt36HOAu8TgbgxYgCoN7qSeMLtr5DRVVndx7NLHss98kxNwjnCqgqoC90Fq69an0VZdaTlmOHgmSIrMMK41btcsHwDcZQZ3ftMi36Bi9+XKprTXpuJcnsL66txi3sbxAZZL6QWcKw3uaXruS1kKwA9SWt92g+GYzc3UwCND5bS2HOC3SP8m1LGAIrjnW9os0Flc4kvOThpsq3zqFBhoa6v3HmiuPVRsE/T3mTawTjkMOlcZ3ONsWu5LPcAPUlmOmxiayamdN0mPDJHdDi0s8lym71BxlxrcjZ5UjWGyj+lSemzAc4XB3cjScVviXUA/SGVd6UYNFkHVMO9XqIxIHdvie7Gy9GeAu9zgrrXDI5ftUlYCz1UG91odtyUb5Acp7ZOB63mvoOoKgqqviMqIVH9wk3eUYfMXAHfJwd2Rpy9MdjFey2bwucLgnqjhrqAXJKS0LnXDQ7G35qaGwOo7tL01g40N9xwbBLjLDu5G2lFtYTKL8VKmZwHQ1QX3cg13JRnoByms9uss/QHEHDPrCKqSa/84s7IhYLUm/AB36cHdKLLrCpOsK+5GQScIXVlwT9cvo2BDwR1SWR/AA42gqj5GqPVZIeGFjRmAuwLgbiTpCpN5zJeyA4SuLLhraHKHwx1SWe/cZg8tW7QcM8GJJVjb0f4xEj1Y9gPcVQD3DLemMOljv5bVQHRlwf24bnsSnw/2gxTWZ1xALxBEUJWOtX2cSPvH6UVRSzbtB7grAe6GS1Nvtpf9UmbkgdFVBfcc3bwyiUA/SGVd4WStmFwghe76TlRdnA5hrlaEGvcD3BUBd6P/iJYwOcBhKV2ZgHRFwV23rkAJ6UA/SGV9xY1enoyPYaIqrO0anrtm/QB3ZcDdKHfqCJMeHkvZ0gBKVxTcPXrFtHscQD9IZV3laY0OPCYWVNWrPyQVa3toYVLkso37Ae4KgbtxSkOWPBrHYyXj9DwEUQB3Q6uwRy3AD1JbN/g22ZgkYrTQMKj6hIi1nfeI1N251P93zQS4KwLuxmX9WLKZ01Jigqqq4N6Yqs+G2PoBfpDa+hf/aCMtx4wmQVUqGYXghNhswvZzbxHAXRVwd+jXDK8QhyCA+8sq1WdD6sF9kOL6j4AaJLEeM/65R8SDqkOPluGRie688+KUCnBXBdyNdN36oRSncDsEHQSoqwnuadpM0DqUAu6DFNdbQhh0eIWWY4b0RFUq1vaxVeF3IxM7/jzAXRlwN3K69EJJjs3wUmpB6kqCuzY2p84CYB+kPLgLGkkzOrFGCt3FF3MFaXSWhrUpODEvfOmm/QB3JcHdOKFVJ8MGntNn0kuA6kqCu+HTYzvaQH2Q+uC+Jsr2MTQ1QssxE9yk55ihcjUyZ0H/n6l1P8BdUXA3jpVpRJKDXJdS15lWyoO7K0GH3XAD+v7L3rktpdE1YXgVGo0RUQE3gAgSFAQtLNzhvgx4oHhI1XeSQ+/KKUtxH9DCbYzRWClvI1eQq/hMUn/y5ys3MLNmenVP9wUAq2eGeVavt9/mIADuWsU6tLn5ckwK3QHEGOYOW6LRkXoE0T98Uf7Pr2BwxwTuImEfD3Jfh7mpdL9iWMcI7iJkg2dgeJahj4MCuB9Zqfk4JdaoSsjaffNug0b/QQXCsfP6s8bgjhncxahdyL09Y3YqC/1M6xjBXWTqyN/8A8x8HCTAXftsbaPleZmYYsZ6MTV3pD4zIhViI3X/yD3N4I4L3MWkTch9zfxUFiKM6xjBXcSoW8ssMvJxEAF37avF5EmtUfUYvWLmnsawpaPyOchZxcFj2WNwRwbuYnLQDhi5akUqC6yWQQnuYnSQb34ODhTgrl1aLS4g16h6UkLdkcoenUa82x9XfzG4YwN3kbABuQe9lqRygskdJbiLEGV/JV+AiY+DDrhbT+4PtHhFq1EVRlrNHal/NDIwHj/335/4QQzu6MBdhMiLs1utQhd3FxM7RnAXHrqukMMFBj4OSuCufQAQe5weEGtUhRFqGDv6uD4hkfrvQK76xcqT208Gd3zgLhLEyT1oXcmRyR0nuAtHQzvN65AbZd7joAXu2u41BDYelmlNVIUq++o2kvlKwpXzC9Ac283bZ4ZVMbgjBHfhJm1CPuO1MJW9rczsGMFdiL5hipfBOcS4x0EN3DVtD8TX8J7IoM7fEAkktNZTLaZhJPPhAGqzdP3siRGDO0ZwF72EB38mHZamMtDN0I4S3IWb4kOwxrTHQRDctRMY5CyWTkih+1H5EAO2X5DYMR1tX0Ml8PyF/moGd5TgLrxUNb7OvNWpdDUztaME9xbXfBtfBQ4ODOCu7UJZo1BrVFVfMUPD/3H36gbMiefFll4Gd5zgLlzLNBW+YYBcNjC2YwR3gnKZ98x6HETBXdPKO1D1X2KNqmorZm5I+D/CaWTWtz6+3JvB4I4U3IVodNKjx/5JkFTmnQzuKMFduIPM7RwcKMBd290Ha5Qk1qgKKOJ4qdp+xek1hu3lan4hgztacBdD5AZItrqBUrlSz+COEtxFSyMdd5mUg1GPgzC4a9o23BTQb3u0GlW/qqiY2aKwP9oFnFVbHbYzuGMGd5EgNj+o2QWWyjkfgztKcH94CnzM7RwcKMBdO67A4WZx/5IVM9AaDwQamVO4cVVVj/xlcEcM7qKXklCgLg6ZSo/dzWUadKVtRAGJiDdFQenkbGDO4yAP7pr2qQSJlrQaVY/OFPKYuaGA7dulTbAEHm5X/zspgfuUlBdoENOSO/x05O0Z2FQ6GtpsDe76fAjlVLvnDV67GP6JZG0LjHkcdgB3TTuBpM2dg0+kyu4ngKT515boO35sP4bzkVlfr23KLCVwT0l5g6ZxLTpeR4Mbg7PgqXyXszO4Z3XlTI6V+pjho6dV7MdN75jyOGwC7qBS9x+ItE0K3T9XLrjajlwjs3lXo+8RJXBPSnmFRpGtmoTEt73RpUAqQ3YWuuub2Nkj5bslVJvDqIvugwMMeRz2AXft6MsOJGcSa1Q9+rjF2I745KJY+ykQJXAfg2+Ug4jAFHpofJVRI5XeZfuCuz4jTjnDq8ISrp1nCq/S3VdgxuOwE7g/wOYVaGcltUZVSP9C/CKZY8idj64ps5TAPaxK9c/qGEJuZjjjUSeV4zbldmdAV77kzK4KSbl2fSNIc9/jYcTjsBm4g6M7tUbVDRh7SAJOMpAaGb1TZimBe0jKW7QP4crnOhEjY+4flVJZWLInuPcDbpbbJemkAq8xerq3JV1MeBz2A3d4dCfWqPrJegAl4Nt+AupypHfKLCVw75Dy2p7FuHRXEu0YmmCBU2msVi7FE7Rb5z5Hxnd3Sbt4k63o7v/xFeY7DnuCu6YdA1uRE5uoarGz+/kZdwdY5f9IGNylWFx0IV17AmfRvX6xRblUTqJKZSQWkLHTWNSZrIiE726Wd+0c2UFcD0Any9s57AvuD+hUPoc1RLkn1ahqIYmW0HcJgPrxbJZODPx0UuA+L+FFmsK6eNc8wqJ7t5vPL4zpLFIBIWSoexI6cxWV8N1StVK9zYj8+J1+lslw2Brcf4gVrmHRvWgIodTTfliRzmKt/oXqxeU+4D13emtMpUUK3PsUMbiAqhRjczMcnOZUGjwfGpC0YR126MxUVgK9St69jb7F8gB0ZZjtOGwP7g8MdQc9PohUo+ql2bLtnQr2UwpYjYzxUx5S4O4ybgmSCyBef0cjphFCzmgvn18Yu1kbftVrE8Y/SrcJqsf4ALAl6VdvCIW/TLvfy2jHweD+s7HytgiL7qf7Xwmhu6kikHP0fQGwM6t0d6RSBXcJs1ObcSdgYgYNty8pXm2c61E9g+mJ//1W4+cDk7rzlAaT1z+37xpT3yG1c5TBjoPB/XdjZWUHFt03D8uk+lS/mbPBOSCgkdkEvMtKUub20gL3UcNvU/QTDGNdKLC9P+tQPpXhVypncCT855cuGv0wn4HqtmpKmV/Rm1L7yCS3yOp2DgZ3pfpUiTWqmjAMFL+kCFYjU7yTdK5DC9yFUT+QTvwpcDWor5ep86NQJHnn61TN4Phf3Ocxesmz+pPUYXR7kzbp6hWmFEb3VTdTHQeDu1Km2hILoqpIQqTaQ97fXnJCFGkNIAbuRst/YQpJcE+pXWxsW53DkspC2qmkOvr1f9oDXhv7vIiR6m/e4GLMU4zMNSlqMOPrY6bjYHB/LEDHWNJrVD06K8lpHjjdx7+jAdXIrN/InDFLDNxbjKl9Ox000hBSkzd/KSPSCUypzAQxbHzcxkruC4bOJYw5pwfNvHqJGQUfhP54CyMdB4P7U+rsqxtgdD/d/0Co7H5cvjbKq8US/jlVwEIsycOqiIG7sZK7k04hTEHe/BU96FryVjoRbHwMOUL6OgwlaMHQckzuKplcVez4KZcMMNBxMLg/WyY+BEb39XNKjara7sfDogGFzBn+I4hdUI1M8W5D8nqogbsw4gUSpZSImIrzP4MYm38d70aU3/gE+uH2qy2dSj9zc8sKdSrUvZ5lnONgcH9Z1QBsD7m+c/CJErsfb9/qQNfNrcolgcXD3k0XJrjekwP3Of1v6fFeUplwrCg2iMY5g3XejCuuhldPW/rJDIYB2TmjX0qes6JJczapiDlk+zL3pHIwuFfptQ1sD0msUfVH/8DedQ3+5cXDyhkFkx3g85utj2aojMiBuxjTzZVD5HIx0K2OxDeXmkOcyZahJXjsiz7XHRDV+7GvPIazk9S9prg1l88zpoC1Z11zgVGOg8G9elUyuGLmhpQ/5E94/3hbhR/it9LeCRvryJgNcGbOsuiBu6Nb53vVT/GfMxFVQ+I73Ij9OMPRB9s2UP964nk21Xko0C6h6aBD79lOk3U7r5VuWIuZ+iSLZDgY3LEpZk73NzRqcXxZrtydP1p8P90q7X3fOKKyUtj7p2jeNF564C56I/rk10QHokz4B6Gp3RmcJjHcfbQJbBfUlX+xpTGhz1kmLyMzbn332IjHystX8I+DPQKRMY/g4GBwx1UxNVHsoAC/f7jcLl9VDh5i7yHK2xufSS0UWCOzUzHxtIYguIuEnvdzJ90Xq2saVOw+7J8jk8rZhgjExqd7pRqf0rCebYWkc6ZRPbuGQatvDG/2rRNk4zrEY1I5GNzReswQa1S1Rex+uSe826MI7iJTO0V00T7HTqSA2vPaeogxS8uK1X0DkcZqOxqztf+yqKzJBbHadw05iF7lQqPVFkH1ywnBwcHgbkCYfQutmNm83mYWxiTlPyiSvltIgruI1UruPvJuD4Fsj+U6j7a3axTzOpG0jv3qVmM1TOvJ1yrjjnZIy8pQrXZOuRjUvn7ZOslMW/Afr+DgYHDH7MP9q4b6ZZeBGIdG5jvoGc2pBeczNMFdZGp7NQdtIUCdXVuysFjsbF2kuxvKpIatsJHpydZ4Y07Xtjl7L3NScF9thzqDgJO4XENNlpxAjTROMLxxMLhLobHta2h0L+5fMhWzRuYFQ549K8ZVEQV3EaqlKNpsGwXqXKPPGufC4CJxZHHFovUmH1fkdci3+mroEm1fk5uSRC36/64Q9PVb7jf3GXjln2Ry42Bwl6h/AFfMrG9dHTMas0bmyTDL/tEu4C48q1VrUN/Z6r+0sNZj8iTJyHLYFlPdvSvLZrWq5tJxnU0X7qr95iPSJeaedPU+kArcIY7RpGnbWJ9/VHBwMLhLrqZebUGj+wU3qqqrkYE9lTHR/tE24C7EQnUV0aD9TrMDQ1NmKT3qu8dCdkplokG+T8lIc9iALto1X51cpskMY/18dc0l9XFVrp87G5VeeK/rzrNChoPDBHD/wWalTehGVavKqhw17upuIG+LeyuHdREGd+FuqqLsOGTPf1RHIr8qG94jTflEi/1S2fsu5ZM222dwNW54vGaiCvfPkZhZz9zL+xhnVC0Lp1B+Rlq3antrMsbdqBwcZoH7TzXEKXTZ/dseN6qyRub/47xs6WrfkP7feGnYZf+YrV+yoXhU0iT48eD7abeNM+kJ+5cMm/Z0RRcScrpFwy9IQPrXzLvvB14aMNuTUe/6ORLZ1JJRBVl9MLkSEBwcHKaCu6YdwytmuFGVNTJ/bobSicULfkP8n2PgGddtX5zHoojevrGozwBzto/MNIbdnEchAgP5Zr3wF0nPh2VKV1rCPc5nprCau7SllRUAABshSURBVF3NpJ/+7vYZdbXfrsmF5k59FzC3tJy142kTBwcEuD/ESQka3blRVR2NDOg+7uLgs+VLfkP+v8Pd8Gj5sf89ez78Du9o3D/TWV8jsfek1lbmeO/zN/yFpv3pGjLZFgk2L/7L3t3+RHWmcRyPJDvNauym7rK2u6vg1g3WNFiCrobVHRyrpLZheOErsgQIkvAQE0ADmGjfmBD23b7pK0/IPMA8MWcyDDMMMzyFzL/hX9C/Yh01jbZSoTBz3fd1vp9/QLzPnDu/c851Xfe5WkwjbXp/5+WVE3V44X395u09BuWcNf0CNtxruf/Nmb/vu3Hhi9u/9zXf44cP1DW4V2sjCpyoCunKKZnHt+Ne2D7+eev86U/ejpzf+ZvYVN/z9v1ax0eXvvv8sy/2jC2fXPnd7U+/+feF5quneL/4ayvZHvCd+PQPX+2Z4L8+feb8X242X6zpu+8b/vOn366+/8fffO31umynOk688yHn6z9faj5rzwX808W7tz669K/Pv9qj2/bKZ2fO/+fyl1f/yG8dEAnujpMpilfM0KgqTLZXWexA3eNe2UI+bmru8Psu+zuam3hJ/MHXjtcvtre0BAJ+v8/n+9bvvxAIfNnS3nSdtruDajx18dzdQOCC/76vyu/3B+5eq+dCftx099a3Pt/NC4H2uofMk/daOvyXq//2uevWXsG/nrpx9VpLc8B///LLq9cRaD539cZZnloB8eD+0tqOeMUMjapiMrJzZHJbYh9cWtlcAACAbcHdcUryFTM0qnqyRqYo2OJAcAcAABYGd8dx00kaVT1nRbZGRrhEiuAOAACsDO7Vipl4RDq6FxIp0nTdxj/Kdjfk4tLXmuAOAABsDe7iIwFfv4VNu2Tqelzr2KJnjkgluAMAAHXBvXoIj2jxhDGZTjvhryt5I57OCO4AAMDm4O4YMdq9/odoeqtGZlW0nyGys2DGOhDcAQCA5cG92qiap1FVb43MdkX0vK2sMd9TCO4AAMD64E6jqubxj6IXNlw0qIOB4A4AADQE92rzYkU6utOoetSiZdHraVgFFMEdAADoCO6O4/4oP9q9kqVR9ahkZGcGLWY3DFsQgjsAANAS3E1pVI2SuY/ARlb2iFQDexYI7gAAQFFwd5xMUXy0O42qR9GzIFojUzby4YvgDgAAVAV3MxpVc/FdwretU4IKWyUz14XgDgAAtAV3UxpVSeC/rUZG9uIZ/LmE4A4AAPQF9+qJqmXxipmKcd2NVtTIRKiRIbgDAAAPBfdXjao58dfuNKoe7HFL9ojUnKk1MgR3AACgO7g7ztI6jaoWET4idTNm+pUaYHMBAABag3u18mInJN+oyomq+/pAIlojk1w1f4l+YHMBAACKg7t4r+MrNKp+yMpySLRGxopnqzk2FwAAoDq4i1dOvz6GM1Eine95gWRn77+I2VHNFOxicwEAAMqDe7UOY0t8tDuNqnt9EskWqJHZjzH2FgAA4IHgXu183JRvVC3SqPrLGhnR/oOERf0HVMoAAABvBHfxOuo3jaoLZPW3i5jysjUySxYt1gRbCwAA8ExwN6NRNU+jqhnjH+2pkXld4T7J1gIAADwU3GlUNWn8Y0H008euZes1wM4CAAC8FdwdTlQ1wlpccv0rVtXIvC6UOcnOAgAAPBfczThRdXPbu42qbjovW6zkWrdkTzrZWAAAgBeD+6s3vuLzIb3aqCpb2h6xctWH+thXAACAV4P7y/xoQKNquOh6LbanEhFqZA6c2+fZVgAAgIeDu+O40TKNqvUlO5HT1oE+x3jfDgAAamOa0SYHalQte6VRVba0PbJja2XSdDebCgAAqI0xq1JRpijfqBpeX9If25eyi5JfNrLWLvHjRvYUAABQIzP21W/IN6pu7eqO7aktyTVO/mhtL0HbD+woAACgZrrb7HsbzImqNZ7hI1ojs2bvys3OsaEAAIAaGrMwILlR0bZJ28s5fnVpRQ+rtXtRH/awnQAAgFrqC1o6qFC8UTWyvKIutov2ENg9b3N0hs0EAADUWKu1Y0+S4hUzuka7b8QEO1JDlj8G9TIFEgAA1FxDr8XV2OKNqgU1o91FD1taTGxYvXjBGabJAACAOug5Zm9gWloXnw8ZWtYw2l30sCXrP1xMcFgqAACoj/kRm8uyo8sGjHbP2F3aLnnYUsj6VoGhYfYQAABQL5Ozdtdmi54WZH3FjFvcZOEOUSUz1cUOAgAA6pjchyyfhiLfqBpKrtpZbLRd4VMFVTIAAMAendO2B6jdLfFG1c1t62LoRjZHc8AhHHvA3gEAAOqta9D6EGVAo2ouvssgmf3OkbF/HM/s0wZ2DgAAUH8ND0Y1zEYRb1RNpm2ZkLIWp0bmMEZbKW4HAABC5qftT+7ORqwiHd0rsSUbnnHKcjUyZQUDNNsGu9kyAACAmK5+BcndhEbVSHzB8DValZv/WNgqaYjt9KQCAABZzx5piO5OSr5R1eQzhdx0mBqZQ8X2sUn2CgAAIK1xIKgiuhvQqGpq96Wb3qRGhtgOAAAU6Hvo6LC2E5Ie7W7gmaCCsT2noUbGaRvsY5MAAACmGB9SEt0NaFTNp4ntb4bcxxTUyDjBx8R2AABgkq7WUSXR3V0Vb1Q1aMaMXGy39VjZn8f2fmI7AAAwTU9/UEl0d1KJnHB0zyVSRsT2YkWsRial4Zc0MtXDzgAAAAw0P6YluRvQqGrAC2e3+ELoP/9CRY2MMzRwh10BAAAYaq5XTXQ3oFF1czvjxdiupEbGeTLeyI4AAABMju4TeqL7RnZRejxkVqzYfb3i6SKhQ5t+cJLdAAAAEN091KgaiUvkWDct9LbdoLbcQ5mYYyMAAABEd681qtZ/sntG6m17Pu1q+Mm0jX3PJgAAAIjuAjLijap1DbRL2zKxPbKzoOLnMsr8RwAAYJfJx0FF2X0tHpGN7uFinaJ7KSHzP13Mbqj4pQy1dnLzAwAAyzR0T40qiu5L0ieq1qVPdSEuM0knvK5i/KPz6CmDZAAAgJU6B2YVRXc3WhbuU02UVHbihspRHb+QiWHueQAAYK2u8UeKort4o2qoXLs+ValPCrmtkorfRpCOVAAAYLmTw72aonumKNyomqxNn+rKskyNjJIjUp2R4z3c6wAAwH66+lTFG1ULR35C0dK20NOIkiNS3WMDd7jNAQCADrqK3Z0N4UbV0FG+dndXhR5EIvFdHT8HzkgFAACqKCt2F29UzcWPpNrdXUkUOCL1MNrG/svdDQAAtHk21qarUbUgm90r2dShU7vUl4NwUcePYITDlgAAgE59qia7yzeqPg/H1n5zXXt6R+rBI7S8ouMHMERpOwAA0Ktz5pim6C5/ourzxZ30wWtOUrGk3B+c0DH+kdJ2AACgXcPwQ1UVM+InqlaHs2RX9x3eM9FYWbDGR8sRqZS2AwAAT5jsV1Ux40aFZqC/YzO+vvaBTJxZKSbykn+qmiNSR6Z6uI0BAIA3aKuYEW9UfROMK8l4bHV34+eBvbS2ur6VlP4yoOWIVOfJTBe3MAAA8JD/6aqYcdP55+bIVcLJ5eVkVf5FxIg/ScsRqU4vpe0AAMBz5nVVzBjQqGqu/BGeGCUpOPg9Ny4AAPCiOzNPVEV3ExpVDRTZWdBxfWdbO7lpAQCAZyk7lcldLYdI6iqPSHUePW3kfgUAAJ7WNzVCo6pa4aKOGpm2h3PcqgAAAF3j06qiu1mNqox/PILxj/193KYAAACvKKuYoVG1OtomntIy/vEOdygAAMBP+lpndTWqroc9HdsXs0pK2yeGuTkBAADe1TXeq6tiJrrs4dJ2Hdcw+HieGxMAAOA9ng0GVWX3UrbgydL2FR2Xb2iAGhkAAIC9dCurmHHTSa+Vtm+VOCIV/2fv3lbiSrM4gLd1OeClryHUG9RV6k7rWiiqCimwSgo8YVmg3ghi7gKduZNBTTQmHjCJJpo2I01eY56gn2LoaRi6h0y3hzrsb+3f7w32/r4Ni836rwUA5MFEJ1bHTL6CqlGmtluRCgBwH8+DdczkJqgapbV9drLiKwQAuJdSfTZYUDX+RtW9kyCt7avzVqQCANxfuI6Zm9gbVQ+OY0xtn2489/EBADxI4YfFWstG1TRcBZnaPrc0JZEKAPAI5Y31YEHVu4gdM7dH5yFOZ6Vb9s0BADzWVrsYK6h69C1Y2X75McTBFK1IBQB4IqPdJVIHrmVFKgBAHxjtbtnSQI1ZkQoA0C/RgqoROmZeB0mkWpEKANBXpW6soOrZL2l3zOyfWpEKAMD3vViOFVR99/VAItWKVACAiKpLc7E6Zq73Uyzbv8RIpM50Cj4pAIBBKc8HC6q+OklstPve3c8hemTaVqQCAAzYZm86VsfM8VU6ZftBjEEyemQAAIai1B0LVbqff06kY+YqxiCZ1fkJHxEAwJBEC6p+ust+x8y3o/MIK1L1yAAADFe0oOrNRbY7Zm4/R3jLc0sVnw4AwLBFC6qenV5muGw/C/CGVzb0yAAAjMZWI1ZQ9X02Z8zs/xKgbNcjAwAwUtGCqodHrzNXtkf4265HBgBg5ArNWEHVs2zNmNk/DdEjU/ahAACM3vhOLVZQNTsdMxHK9uLytm8EACAryvOrsbYyff2QgbL98mOAHpla1ecBAJAp2+1QQdXD61t/2/uwa0mPDABA9lTqs7HGQ74dZdme/t/24vJLHwUAQDZFC6p+uvO3XY8MAEBMwTaq3hx/ULY/Zo5MV48MAEDWBduoenhxNdyy/W3yTTLF5abPAAAgCbE2qg5zsvvel/d6ZAAAGJ5YG1XPTi+HUrYfvHmX+qta7z5z+wEAkjIeK6g6hJzqh68/pf6WFvTIAACkqDq5Fmkp05uDgSZSP58n/oJavR13HgAgUbGCqoPLqR68Sb61XY8MAEDiNnuBgqqDWcr0r6PD9Htkxl11AIDUleqRgqo/93my+8HJq9RfSaumRwYAIIitdqCg6vl1/2bMfEm+s313rK5HBgAgkFhB1ZujftTu+0fJj5HZnenokQEACGaiE2qj6j+Ovz1p09Lbo+Rntu9OmyMDABDTYq0VqXZ/f3G596iq/erk9DD9x5/VIwMAEFepux6pdN/96fPJA0dEHlwevz8L8OQzHbcZACC2rcZ0qNr97NP13e39ivbXJ0chivbd6camiwwAEN9UqKDqb7uZPl6c7P/JZtWD/ZOL03dBHnZ2suISAwDkQ6G5sBvQzavrizcnb/e//VbC7314fXt58vXinx/fncV5SHNkAADyJVhQNSf0yAAA5FB5Y10lrEcGAIAEbEfaqBrdTKfgxgIA5FalPqskTqFHpv3cZQUAyLdCc9lvdz0yAAAkYKc2pzjOrtX5CXcUAID/KM/PKJAzqahHBgCAP4i2UTWEtaWKmwkAwP8odceUylmysqFHBgCA7xkXVNUjAwBAEqqTa4rm0ZvTIwMAwF8QVM1Aj0zZPQQA4K9t9gRVR9cjs7ztBgIAcE+l7roSeiQ9MrWq2wcAwAMIqo5k15IeGQAAHkxQdbgWmj8U3DoAAB6h0BFUHZJWb8d9AwDg8RZrLVX1wI3Vn7lqAAA8TXlDUHWwZjpWpAIA0A9bDfMhB2W6semCAQDQJ4WpyVk19gDMTlbcLgAA+lq7mw85gPGPemQAAOi/xdqcYtuKVAAAsq88v6ritiIVAIAECKr2wXrXilQAAAatUhdUfVqPzAuXCACAwSsUBFWfMP7RilQAAIaouiSo+pjxj1akAgAwZIKqDx//2Bl3bwAAGD5B1Yf0yLStSAUAYFQEVe87/nGp4rYAADBCgqr3sLJhRSoAACNno6oVqQAAJEFQ1YpUAADSIKj6/RWpxj8CAJAxU5OCqn+08MKtAAAggwRVfz/+sWH8IwAAmbVYa6nZjX8EACD7BFV/Hf9YdhEAAMi8nAdVF5quAAAAacjvRlWt7QAAJKXQXNDaDgAACchdUHVlY8KpAwCQoPLGeo5a2186cAAAkvWynYvR7q3ejrMGACBpU39bi162r9VLzhkAgOQFD6qum9oOAEAUi72oo91XO+OOFwCAOErdsXhVe7FtajsAANEUmsuxgqqtXtWpAgAQUaTR7rP1Zw4UAICooox2t2wJAIDottIf7b7QdIwAAMRXrc2lnEhtLDpCAADyoTy/mmjZPi2RCgBArmw1EhztPrdUcXIAAOTM1OSaQTIAAJB9E52ZdMr2dYNkAADIr81eGh0zq51xhwUAQJ6V6rPZn/+47ZwAAMi9QrY7ZortTWcEAAC/Wqy1Mlu2G9sOAAD/lc2OmWJjx9EAAMDvFZoL/rYDAEACFrM0Y0bZDgAA/0+pvqZsBwCA7CvPr2SgbP+x6iQAAODPbbWLI/7bLpIKAAD3UB3heMjij8p2AAC4p1E1u+ttBwCAB5mYXze3HQAAEvBiuJPdp3siqQAA8BjPG0Ob7D63VPG+AQDgkarDWco09veydw0AAE9Q+jd7d5PSMBQFYNRm3mG3kTV01A6T8QNJgjyoSkCTkFJoO3FiZ92IexQXIKj5sYNzlvCNLiH3vnTqPdWPUC91BgCAgaZ9lCmrLonGAAAwgmUME43tx/1aXgAAGM19sxv//GMbhQUAgHFtn/tRx/auzEUFAIAJnA9jLao+NJ5IBQCAySTXw/BfZh6rqzMyAAAwrW3dDrntvijiSkQAAJhjdo/F4k/bqH16Vg8AAGb0Wobsd0P7oV7LBgAAs1udT9WPvrxnoYkbvQAA4P/kdVmFb4/N7EJVxneVAADgJmwu9T4tqjZ0XdeHEF6eivIU3/I752MAAODmLL/m9EQHAAAAAAAAAAAAAAAAAAAAAAAAAAAAAAAAAAAAAAAAAAAAAAAAAAAAAAAAAAAAAAAAAAAAAAAAAAAAAAAAAAAAAAAAAAAAAAAAAAAAAAAAAAAAAAAAAAAAAAAAAAAAAAAAAAAAAAAAAAAAAAAAAAAAAAAAAAAAAAAAAAAAAAAAAAAAAAAAAAAAAAAAAAAAAAAAAAAAAAAAAAAAAAAAAAAAAAAAAAAAAAAAAAAAAAAAAAAAAAAAAAAAAAAAAAAAAAAAAAAAAAAAAAAAAAAAAAAAAAAAAAAAAAAAAAAAAAAAAAAAAAAAAAAAAAAAAAAAAAAAAAAAAAAAAAAAAAAAAAAAAAAAAAAAAAAAAAAAAAAAAAAAAAAAAAAAAAAAAAAAAAAAAAAAAAAAAAAAAAAAAAAAAAAAAAAAAAAAAAAAAAAAAAAAAAAAAAAAAAAAAAAAAAAAAAAAAAAAAAAAAAAAAAAAAAAAAAAAAAAAAAAAAAAAAAAAAAAAAAAAAAAAAAAAAAAAAAAAAAAAAAAAAAAAAAAAAAAAAAAAAAAAAAAAAAAAAAAAAAAAAAAAAAAAAAAAAAAAAAAAAAAAAAAAAAD4ZA8OBAAAAACA/F8bQVVVVVVVVVVVVVVVVVVVVVVVVVVVVVVVVVVVVVVVVVVVVVVVVVVVVVVVVVVVVVVVVVVVVVVVVVVVVVVVVVVVVVVVVVVVVVVVVVVVVVVVVVVVVVVVVVVVVVVVVVVVVVVVVVVVVVVVVVVVVVVVVVVVVVVVVVVVVVVVVVVVVVVVVVVVVVVVVVVVVVVVVVVVVVVVVVVVVVVVVVVVVVVVVVVVVVVVVVVVVVVVVVVVVVVVVVVVVVVVVVVVVVVVVVVVVVVVVVVVVVVVVVVVVVVVVVVVVVVVVVVVVVVVVVVVVVVVVVVVVVVVVVVVVVVVVVVVVVVVVVVVVVVVVVVVVVVVVVVVVVVVVVVVVVVVVVVVVVVVVVVVVVVVVVVVVVVVVVVVVVVVVVVVVVVVVVVVVVVVVVVVVVVVVVVVVVVVVVVVVVVVVVVVVVVVVVVVVVVVVVVVVVVVVVVVVVVVVVVVVVVVVVVVVVVVVVVVVVVVVVVVVVVVVVVVVVVVVVVVVVVVVVVVVVVVVVVVVVVVVVVVVVVVVVVVVVVVVVVVVVVVVVVVVVVVVVVVVVVVVVVVVVVVVVVVVVVVVVVVVVVVVVVVVVVVVVVVVVVVVVVVVVVVVVVVVVVVVVVVVVVVVVVVVVVVVVVVVVVVVVVVVVVVVVVVVVVVVVVVVVVVVVVVVVVVVVVVVVVVVVWFPTgQAAAAAADyf20EVVVVVVVVVVVVVVVVVVVVVVVVVVVVVVVVVVVVVVVVVVVVVVVVVVVVVVVVVVVVVVVVVVVVVVVVVVVVVVVVVVVVVVVVVVVVVVVVVVVVVVVVVVVVVVVVVVVVVVVVVVVVVVVVVVVVVVVVVVVVVVVVVVVVVVVVVVVVVVVVVVVVVVVVVVVVVVVVVVVVVVVVVVVVVVVVVVVVVVVVVVVVVVVVVVVVVVVVVVVVVVVVVVVVVVVVVVVVVVVVVVVVVVVVVVVVVVVVVVVVVVVVVVVVVVVVVVVVVVVVVVVVVVVVVVVVVVVVVVVVVVVVVVVVVVVVVVVVVVVVVVVVVVVVVVVVVVVVVVVVVVVVVVVVVVVVVVVVVVVVVVVVVVVVVVVVVVVVVVVVVVVVVVVVVVVVVVVVVVVVVVVVVVVVVVVVVVVVVVVVVVVVVVVVVVVVVVVVVVVVVVVVVVVVVVVVVVVVVVVVVVVVVVVVVVVVVVVVVVVVVVVVVVVVVVVVVVVVVVVVVVVVVVVVVVVVVVVVVVVVVVVVVVVVVVVVVVVVVVVVVVVVVVVVVVVVVVVVVVVVVVVVVVVVVVVVVVVVVVVVVVVVVVVVVVVVVVVVVVVVVVVVVVVVVVVVVVVVVVVVVVVVVVVVVVVVVVVVVVVVVVVVVVVVVVVVVVVVVVVVVVVVVVVVVVVVVVVVVVVVVZX24JAAAAAAQND/154wAgAAAAAAAAAAAAAAAAAAAAAAAAAAAAAAAAAAAAAAAAAAAAAAAAAAAAAAAAAAAAAAAAAAAAAAAAAAAAAAAAAAAAAAAAAAAAAAAAAAAAAAAAAAAAAAAAAAAAAAAAAAAAAAAAAAAAAAAAAAAAAAAAAAAAAAAAAAAAAAAAAAAAAAAAAAAAAAAAAAAAAAAAAAAAAAAAAAAAAAAAAAAAAAAAAAAAAAAAAAAAAAAAAAAAAAAAAAAAAAAAAAAAAAAAAAAAAAAAAAAAAAAAAAAAAAAAAAAAAAAAAAAAAAAAAAAAAAAAAAAAAAAAAAAAAAAAAAAAAAAAAAAAAAAAAAAAAAAAAAAAAAAAAAAAAAAAAAAAAAAAAAAAAAAAAAAAAAAAAAAAAAAAAAAAAAAAAAAAAAAAAAAAAAAAAAAAAAAAAAAAAAAAAAAAAAAAAAAAAAAAAAAAAAAAAAAAAAAAAAAAAAAAAAAAAAAAAAAAAAAAAAAAAAAAAAAMAp68Xh/UVWHukAAAAASUVORK5CYII=;" vertex="1" parent="1">
          <mxGeometry x="330" y="50" width="90" height="60.06" as="geometry" />
        </mxCell>
        <mxCell id="gVB4LSOkvo2EhLdVo8bD-29" value="" style="shape=table;html=1;whiteSpace=wrap;startSize=0;container=1;collapsible=0;childLayout=tableLayout;" vertex="1" parent="1">
          <mxGeometry x="440" y="130" width="150" height="110" as="geometry" />
        </mxCell>
        <mxCell id="gVB4LSOkvo2EhLdVo8bD-30" value="" style="shape=partialRectangle;html=1;whiteSpace=wrap;collapsible=0;dropTarget=0;pointerEvents=0;fillColor=none;top=0;left=0;bottom=0;right=0;points=[[0,0.5],[1,0.5]];portConstraint=eastwest;" vertex="1" parent="gVB4LSOkvo2EhLdVo8bD-29">
          <mxGeometry width="150" height="40" as="geometry" />
        </mxCell>
        <mxCell id="gVB4LSOkvo2EhLdVo8bD-31" value="org_uid" style="shape=partialRectangle;html=1;whiteSpace=wrap;connectable=0;fillColor=none;top=0;left=0;bottom=0;right=0;overflow=hidden;pointerEvents=1;" vertex="1" parent="gVB4LSOkvo2EhLdVo8bD-30">
          <mxGeometry width="100" height="40" as="geometry" />
        </mxCell>
        <mxCell id="gVB4LSOkvo2EhLdVo8bD-32" value="alias" style="shape=partialRectangle;html=1;whiteSpace=wrap;connectable=0;fillColor=none;top=0;left=0;bottom=0;right=0;overflow=hidden;pointerEvents=1;" vertex="1" parent="gVB4LSOkvo2EhLdVo8bD-30">
          <mxGeometry x="100" width="50" height="40" as="geometry" />
        </mxCell>
        <mxCell id="gVB4LSOkvo2EhLdVo8bD-34" value="" style="shape=partialRectangle;html=1;whiteSpace=wrap;collapsible=0;dropTarget=0;pointerEvents=0;fillColor=none;top=0;left=0;bottom=0;right=0;points=[[0,0.5],[1,0.5]];portConstraint=eastwest;" vertex="1" parent="gVB4LSOkvo2EhLdVo8bD-29">
          <mxGeometry y="40" width="150" height="30" as="geometry" />
        </mxCell>
        <mxCell id="gVB4LSOkvo2EhLdVo8bD-35" value="9b5c5db1-5..." style="shape=partialRectangle;html=1;whiteSpace=wrap;connectable=0;fillColor=none;top=0;left=0;bottom=0;right=0;overflow=hidden;pointerEvents=1;" vertex="1" parent="gVB4LSOkvo2EhLdVo8bD-34">
          <mxGeometry width="100" height="30" as="geometry" />
        </mxCell>
        <mxCell id="gVB4LSOkvo2EhLdVo8bD-36" value="00001" style="shape=partialRectangle;html=1;whiteSpace=wrap;connectable=0;fillColor=none;top=0;left=0;bottom=0;right=0;overflow=hidden;pointerEvents=1;" vertex="1" parent="gVB4LSOkvo2EhLdVo8bD-34">
          <mxGeometry x="100" width="50" height="30" as="geometry" />
        </mxCell>
        <mxCell id="gVB4LSOkvo2EhLdVo8bD-38" value="" style="shape=partialRectangle;html=1;whiteSpace=wrap;collapsible=0;dropTarget=0;pointerEvents=0;fillColor=none;top=0;left=0;bottom=0;right=0;points=[[0,0.5],[1,0.5]];portConstraint=eastwest;" vertex="1" parent="gVB4LSOkvo2EhLdVo8bD-29">
          <mxGeometry y="70" width="150" height="40" as="geometry" />
        </mxCell>
        <mxCell id="gVB4LSOkvo2EhLdVo8bD-39" value="3781a4bb-6..." style="shape=partialRectangle;html=1;whiteSpace=wrap;connectable=0;fillColor=none;top=0;left=0;bottom=0;right=0;overflow=hidden;pointerEvents=1;" vertex="1" parent="gVB4LSOkvo2EhLdVo8bD-38">
          <mxGeometry width="100" height="40" as="geometry" />
        </mxCell>
        <mxCell id="gVB4LSOkvo2EhLdVo8bD-40" value="00002" style="shape=partialRectangle;html=1;whiteSpace=wrap;connectable=0;fillColor=none;top=0;left=0;bottom=0;right=0;overflow=hidden;pointerEvents=1;" vertex="1" parent="gVB4LSOkvo2EhLdVo8bD-38">
          <mxGeometry x="100" width="50" height="40" as="geometry" />
        </mxCell>
        <mxCell id="gVB4LSOkvo2EhLdVo8bD-42" value="" style="group" vertex="1" connectable="0" parent="1">
          <mxGeometry x="160" y="40" width="140" height="130" as="geometry" />
        </mxCell>
        <mxCell id="gVB4LSOkvo2EhLdVo8bD-13" value="" style="whiteSpace=wrap;html=1;" vertex="1" parent="gVB4LSOkvo2EhLdVo8bD-42">
          <mxGeometry y="80" width="130" height="50" as="geometry" />
        </mxCell>
        <mxCell id="gVB4LSOkvo2EhLdVo8bD-19" value="" style="whiteSpace=wrap;html=1;aspect=fixed;" vertex="1" parent="gVB4LSOkvo2EhLdVo8bD-42">
          <mxGeometry x="10" y="90" width="30" height="30" as="geometry" />
        </mxCell>
        <mxCell id="gVB4LSOkvo2EhLdVo8bD-20" value="" style="whiteSpace=wrap;html=1;aspect=fixed;" vertex="1" parent="gVB4LSOkvo2EhLdVo8bD-42">
          <mxGeometry x="50" y="90" width="30" height="30" as="geometry" />
        </mxCell>
        <mxCell id="gVB4LSOkvo2EhLdVo8bD-24" value="" style="whiteSpace=wrap;html=1;aspect=fixed;" vertex="1" parent="gVB4LSOkvo2EhLdVo8bD-42">
          <mxGeometry x="90" y="90" width="30" height="30" as="geometry" />
        </mxCell>
        <mxCell id="gVB4LSOkvo2EhLdVo8bD-57" value="Black Mamba" style="text;html=1;strokeColor=none;fillColor=none;align=center;verticalAlign=middle;whiteSpace=wrap;rounded=0;" vertex="1" parent="gVB4LSOkvo2EhLdVo8bD-42">
          <mxGeometry x="30" y="50" width="80" height="30" as="geometry" />
        </mxCell>
        <mxCell id="gVB4LSOkvo2EhLdVo8bD-43" value="" style="endArrow=none;startArrow=classic;html=1;entryX=0.5;entryY=1;entryDx=0;entryDy=0;exitX=0.5;exitY=0;exitDx=0;exitDy=0;exitPerimeter=0;startFill=1;endFill=0;" edge="1" parent="1" source="gVB4LSOkvo2EhLdVo8bD-1" target="gVB4LSOkvo2EhLdVo8bD-19">
          <mxGeometry width="50" height="50" relative="1" as="geometry">
            <mxPoint x="370" y="230" as="sourcePoint" />
            <mxPoint x="420" y="180" as="targetPoint" />
          </mxGeometry>
        </mxCell>
        <mxCell id="gVB4LSOkvo2EhLdVo8bD-44" value="" style="endArrow=classic;html=1;exitX=0.5;exitY=1;exitDx=0;exitDy=0;entryX=0.5;entryY=0;entryDx=0;entryDy=0;entryPerimeter=0;" edge="1" parent="1" source="gVB4LSOkvo2EhLdVo8bD-20" target="gVB4LSOkvo2EhLdVo8bD-3">
          <mxGeometry width="50" height="50" relative="1" as="geometry">
            <mxPoint x="370" y="230" as="sourcePoint" />
            <mxPoint x="420" y="180" as="targetPoint" />
          </mxGeometry>
        </mxCell>
        <mxCell id="gVB4LSOkvo2EhLdVo8bD-45" value="" style="endArrow=classic;html=1;exitX=1;exitY=1;exitDx=0;exitDy=0;" edge="1" parent="1" source="gVB4LSOkvo2EhLdVo8bD-24">
          <mxGeometry width="50" height="50" relative="1" as="geometry">
            <mxPoint x="370" y="230" as="sourcePoint" />
            <mxPoint x="320" y="190" as="targetPoint" />
          </mxGeometry>
        </mxCell>
        <mxCell id="gVB4LSOkvo2EhLdVo8bD-46" value="" style="endArrow=classic;html=1;exitX=0.75;exitY=1;exitDx=0;exitDy=0;entryX=0.145;entryY=0;entryDx=0;entryDy=4.35;entryPerimeter=0;" edge="1" parent="1" source="gVB4LSOkvo2EhLdVo8bD-19" target="gVB4LSOkvo2EhLdVo8bD-3">
          <mxGeometry width="50" height="50" relative="1" as="geometry">
            <mxPoint x="370" y="230" as="sourcePoint" />
            <mxPoint x="420" y="180" as="targetPoint" />
          </mxGeometry>
        </mxCell>
        <mxCell id="gVB4LSOkvo2EhLdVo8bD-47" value="" style="endArrow=classic;html=1;exitX=1;exitY=1;exitDx=0;exitDy=0;entryX=0.145;entryY=0;entryDx=0;entryDy=4.35;entryPerimeter=0;" edge="1" parent="1" source="gVB4LSOkvo2EhLdVo8bD-19" target="gVB4LSOkvo2EhLdVo8bD-12">
          <mxGeometry width="50" height="50" relative="1" as="geometry">
            <mxPoint x="370" y="230" as="sourcePoint" />
            <mxPoint x="420" y="180" as="targetPoint" />
          </mxGeometry>
        </mxCell>
        <mxCell id="gVB4LSOkvo2EhLdVo8bD-48" value="" style="endArrow=classic;html=1;exitX=0.5;exitY=1;exitDx=0;exitDy=0;entryX=0.855;entryY=0;entryDx=0;entryDy=4.35;entryPerimeter=0;" edge="1" parent="1" source="gVB4LSOkvo2EhLdVo8bD-20" target="gVB4LSOkvo2EhLdVo8bD-1">
          <mxGeometry width="50" height="50" relative="1" as="geometry">
            <mxPoint x="370" y="230" as="sourcePoint" />
            <mxPoint x="420" y="180" as="targetPoint" />
          </mxGeometry>
        </mxCell>
        <mxCell id="gVB4LSOkvo2EhLdVo8bD-49" value="" style="endArrow=classic;html=1;exitX=0;exitY=1;exitDx=0;exitDy=0;entryX=1;entryY=0;entryDx=0;entryDy=15;entryPerimeter=0;" edge="1" parent="1" source="gVB4LSOkvo2EhLdVo8bD-24" target="gVB4LSOkvo2EhLdVo8bD-1">
          <mxGeometry width="50" height="50" relative="1" as="geometry">
            <mxPoint x="370" y="230" as="sourcePoint" />
            <mxPoint x="420" y="180" as="targetPoint" />
          </mxGeometry>
        </mxCell>
        <mxCell id="gVB4LSOkvo2EhLdVo8bD-50" value="" style="endArrow=classic;html=1;exitX=0.5;exitY=1;exitDx=0;exitDy=0;entryX=0.5;entryY=0;entryDx=0;entryDy=0;entryPerimeter=0;" edge="1" parent="1" source="gVB4LSOkvo2EhLdVo8bD-24" target="gVB4LSOkvo2EhLdVo8bD-3">
          <mxGeometry width="50" height="50" relative="1" as="geometry">
            <mxPoint x="330" y="120" as="sourcePoint" />
            <mxPoint x="380" y="70" as="targetPoint" />
          </mxGeometry>
        </mxCell>
        <mxCell id="gVB4LSOkvo2EhLdVo8bD-51" value="" style="endArrow=classic;html=1;exitX=0.75;exitY=1;exitDx=0;exitDy=0;" edge="1" parent="1" source="gVB4LSOkvo2EhLdVo8bD-24">
          <mxGeometry width="50" height="50" relative="1" as="geometry">
            <mxPoint x="370" y="230" as="sourcePoint" />
            <mxPoint x="310" y="190" as="targetPoint" />
          </mxGeometry>
        </mxCell>
        <mxCell id="gVB4LSOkvo2EhLdVo8bD-54" value="" style="endArrow=classic;html=1;exitX=0.5;exitY=0;exitDx=0;exitDy=0;entryX=0;entryY=0.5;entryDx=0;entryDy=0;rounded=0;edgeStyle=orthogonalEdgeStyle;startArrow=classic;startFill=1;" edge="1" parent="1" source="gVB4LSOkvo2EhLdVo8bD-13" target="gVB4LSOkvo2EhLdVo8bD-28">
          <mxGeometry width="50" height="50" relative="1" as="geometry">
            <mxPoint x="380" y="220" as="sourcePoint" />
            <mxPoint x="430" y="170" as="targetPoint" />
          </mxGeometry>
        </mxCell>
      </root>
    </mxGraphModel>
  </diagram>
</mxfile>
